<svg xmlns="http://www.w3.org/2000/svg" xmlns:xlink="http://www.w3.org/1999/xlink" width="940" zoomAndPan="magnify" viewBox="0 0 705 591.000005" height="788" preserveAspectRatio="xMidYMid meet" version="1.0"><defs><clipPath id="d4f26a11cc"><path d="M 328 351 L 522 351 L 522 486.480469 L 328 486.480469 Z M 328 351 " clip-rule="nonzero"/></clipPath></defs><path fill="#b6d5f0" d="M 264.710938 85.296875 C 197.535156 82.019531 216.375 159.453125 270.445312 138.152344 C 268.808594 175.847656 334.34375 170.929688 342.535156 134.871094 C 354.003906 152.898438 403.160156 157.820312 419.546875 149.617188 C 453.949219 131.59375 435.929688 98.816406 403.160156 100.457031 C 406.433594 59.484375 344.175781 36.542969 335.984375 82.425781 C 321.238281 41.457031 278.636719 36.542969 265.527344 80.792969 L 264.710938 85.296875 " fill-opacity="1" fill-rule="nonzero"/><path fill="#b6d5f0" d="M 529.796875 272.769531 C 495.273438 271.085938 504.953125 310.882812 532.746094 299.9375 C 531.902344 319.308594 565.589844 316.78125 569.800781 298.253906 C 575.691406 307.511719 600.957031 310.046875 609.382812 305.835938 C 627.0625 296.566406 617.796875 279.71875 600.957031 280.5625 C 602.640625 259.503906 570.640625 247.710938 566.429688 271.296875 C 558.847656 250.238281 536.953125 247.710938 530.214844 270.457031 L 529.796875 272.769531 " fill-opacity="1" fill-rule="nonzero"/><path fill="#b6d5f0" d="M 175.363281 226.210938 C 209.890625 224.527344 200.207031 264.328125 172.414062 253.378906 C 173.257812 272.753906 139.570312 270.222656 135.359375 251.695312 C 129.46875 260.960938 104.207031 263.488281 95.785156 259.277344 C 78.097656 250.007812 87.363281 233.164062 104.207031 234.003906 C 102.519531 212.949219 134.519531 201.152344 138.734375 224.738281 C 146.3125 203.679688 168.207031 201.152344 174.945312 223.898438 L 175.363281 226.210938 " fill-opacity="1" fill-rule="nonzero"/><g clip-path="url(#d4f26a11cc)"><path fill="#b6d5f0" d="M 478.078125 399.136719 C 473.8125 372.847656 461.027344 345.855469 429.0625 352.246094 C 404.207031 357.222656 392.132812 377.828125 391.421875 400.554688 C 371.53125 385.636719 333.890625 403.398438 328.914062 426.84375 C 323.234375 458.105469 360.875 463.789062 382.898438 457.398438 C 388.582031 476.574219 398.527344 485.816406 419.121094 486.527344 C 441.140625 487.234375 443.273438 477.996094 448.242188 459.523438 C 459.605469 473.738281 483.046875 477.285156 500.097656 470.890625 C 517.847656 464.5 527.796875 438.210938 510.039062 431.816406 C 518.558594 426.132812 526.578125 419.441406 518.558594 403.398438 C 510.039062 386.347656 486.601562 396.300781 478.078125 401.980469 L 478.078125 399.136719 " fill-opacity="1" fill-rule="nonzero"/></g></svg>