<svg xmlns="http://www.w3.org/2000/svg" xmlns:xlink="http://www.w3.org/1999/xlink" width="940" zoomAndPan="magnify" viewBox="0 0 705 591.000005" height="788" preserveAspectRatio="xMidYMid meet" version="1.0"><defs><clipPath id="e14982a67e"><path d="M 52 171 L 660.351562 171 L 660.351562 408 L 52 408 Z M 52 171 " clip-rule="nonzero"/></clipPath><clipPath id="2947be075d"><path d="M 52 303 L 660.351562 303 L 660.351562 408 L 52 408 Z M 52 303 " clip-rule="nonzero"/></clipPath></defs><g clip-path="url(#e14982a67e)"><path fill="#e3f2ff" d="M 610.246094 308.84375 C 628.808594 272.984375 587.800781 236.378906 529.433594 234.882812 C 528.804688 217.277344 518.921875 198.566406 501.492188 185.558594 C 471.824219 163.414062 432.628906 166.941406 418.332031 194.199219 C 377.132812 174.425781 328.34375 193.222656 307.027344 239.527344 C 306.890625 239.691406 306.75 239.855469 306.613281 240.019531 C 273.144531 226.601562 232.628906 240.113281 220.515625 268.691406 C 156.976562 234.136719 52.535156 260.328125 52.535156 309.238281 C 52.535156 352.339844 136.046875 380.191406 202.839844 357.464844 C 228.671875 408.128906 286.867188 418.753906 305.675781 377.347656 C 331.375 407.722656 370.15625 415.542969 402.558594 400.007812 C 428.753906 412.5625 460.386719 410.285156 485.851562 390.449219 C 547.449219 426.195312 660.289062 402.941406 660.289062 354.742188 C 660.289062 335.132812 640.160156 318.023438 610.246094 308.84375 " fill-opacity="1" fill-rule="nonzero"/></g><path fill="#ffffff" d="M 614.6875 291.238281 C 601.917969 273.527344 570.542969 260.796875 533.4375 259.996094 C 532.796875 244.714844 522.667969 228.464844 504.8125 217.171875 C 474.457031 197.972656 434.300781 200.960938 419.578125 224.667969 C 377.25 207.46875 327.296875 223.898438 305.511719 264.035156 C 305.355469 264.167969 305.222656 264.3125 305.074219 264.457031 C 271.371094 253.027344 229.492188 264.070312 216.84375 289.355469 C 164.96875 265.488281 80.292969 274.355469 52.761719 305.492188 C 58.199219 258.484375 159.230469 235.367188 220.511719 268.691406 C 232.691406 239.96875 273.34375 226.664062 306.617188 240.023438 C 306.75 239.855469 306.894531 239.683594 307.027344 239.527344 C 328.445312 193 377.34375 174.515625 418.332031 194.199219 C 432.527344 167.042969 471.722656 163.335938 501.492188 185.558594 C 518.921875 198.566406 528.804688 217.285156 529.433594 234.882812 C 576.835938 236.09375 614.6875 260.855469 614.6875 291.238281 " fill-opacity="1" fill-rule="nonzero"/><g clip-path="url(#2947be075d)"><path fill="#b6d5f0" d="M 660.289062 354.742188 C 660.289062 402.488281 548.039062 426.527344 485.855469 390.449219 C 460.367188 410.285156 428.742188 412.566406 402.558594 400.003906 C 370.15625 415.550781 331.367188 407.710938 305.671875 377.347656 C 287.070312 418.375 229.101562 408.6875 202.839844 357.457031 C 132.753906 381.320312 44.84375 349.382812 53.039062 303.476562 C 60.515625 326.25 141.734375 338.21875 202.839844 326.769531 C 228.710938 354.628906 286.949219 360.398438 305.671875 337.691406 C 332.039062 354.800781 371.011719 358.429688 402.558594 350.132812 C 428.964844 357.074219 460.535156 355.707031 485.855469 344.882812 C 504.195312 350.734375 535.886719 368.195312 565.261719 368.195312 C 608.34375 368.195312 641.890625 351.96875 654.667969 337.195312 C 658.300781 342.679688 660.289062 348.582031 660.289062 354.742188 " fill-opacity="1" fill-rule="nonzero"/></g><path fill="#b6d5f0" d="M 614.675781 290.671875 C 614.675781 290.382812 614.675781 290.097656 614.664062 289.828125 C 614.699219 290.078125 614.691406 290.542969 614.675781 290.671875 " fill-opacity="1" fill-rule="nonzero"/><path fill="#b6d5f0" d="M 587.949219 384.738281 C 547.855469 389.734375 492.097656 362.53125 471.453125 328.011719 C 502.625 355.117188 547.359375 376.90625 587.949219 384.738281 " fill-opacity="1" fill-rule="nonzero"/><path fill="#b6d5f0" d="M 241.488281 307.355469 C 225.128906 335.128906 183.734375 347.199219 155.070312 332.6875 C 184.707031 335.171875 217.894531 325.449219 241.488281 307.355469 " fill-opacity="1" fill-rule="nonzero"/><path fill="#b6d5f0" d="M 450.0625 328.394531 C 426.207031 366.160156 382.507812 366.019531 358.789062 328.394531 C 386.898438 346.753906 421.949219 346.753906 450.0625 328.394531 " fill-opacity="1" fill-rule="nonzero"/><path fill="#b6d5f0" d="M 495.703125 252.222656 C 471.847656 289.988281 428.144531 289.847656 404.429688 252.222656 C 432.539062 270.582031 467.589844 270.589844 495.703125 252.222656 " fill-opacity="1" fill-rule="nonzero"/></svg>