<svg xmlns="http://www.w3.org/2000/svg" xmlns:xlink="http://www.w3.org/1999/xlink" width="940" zoomAndPan="magnify" viewBox="0 0 705 591.000005" height="788" preserveAspectRatio="xMidYMid meet" version="1.0"><defs><clipPath id="e280c1412f"><path d="M 31.347656 204.78125 L 673.761719 204.78125 L 673.761719 428.652344 L 31.347656 428.652344 Z M 31.347656 204.78125 " clip-rule="nonzero"/></clipPath><clipPath id="ad6cab6a06"><path d="M 31.347656 296 L 664 296 L 664 428.652344 L 31.347656 428.652344 Z M 31.347656 296 " clip-rule="nonzero"/></clipPath><clipPath id="96d8cca9e6"><path d="M 643 387 L 673.761719 387 L 673.761719 399 L 643 399 Z M 643 387 " clip-rule="nonzero"/></clipPath><clipPath id="b1291b161f"><path d="M 337 204.78125 L 358 204.78125 L 358 226 L 337 226 Z M 337 204.78125 " clip-rule="nonzero"/></clipPath><clipPath id="1cb0dbfdf1"><path d="M 643 367 L 673.761719 367 L 673.761719 388 L 643 388 Z M 643 367 " clip-rule="nonzero"/></clipPath><clipPath id="3390ec10ca"><path d="M 357 204.78125 L 379 204.78125 L 379 215 L 357 215 Z M 357 204.78125 " clip-rule="nonzero"/></clipPath></defs><g clip-path="url(#e280c1412f)"><path fill="#ff999a" d="M 663.449219 377.773438 L 663.449219 367.597656 L 653.257812 367.597656 L 653.257812 357.421875 L 632.871094 357.421875 L 632.871094 347.246094 L 581.902344 347.246094 L 581.902344 357.421875 L 561.515625 357.421875 L 561.515625 337.070312 L 551.324219 337.070312 L 551.324219 326.890625 L 541.128906 326.890625 L 541.128906 316.714844 L 530.9375 316.714844 L 530.9375 306.539062 L 479.972656 306.539062 L 479.972656 286.1875 L 469.777344 286.1875 L 469.777344 265.835938 L 459.585938 265.835938 L 459.585938 255.660156 L 449.390625 255.660156 L 449.390625 245.484375 L 439.199219 245.484375 L 439.199219 235.308594 L 398.425781 235.308594 L 398.425781 225.132812 L 388.230469 225.132812 L 388.230469 214.957031 L 378.039062 214.957031 L 378.039062 204.78125 L 337.265625 204.78125 L 337.265625 214.957031 L 316.878906 214.957031 L 316.878906 225.132812 L 265.914062 225.132812 L 265.914062 235.308594 L 255.71875 235.308594 L 255.71875 245.484375 L 245.527344 245.484375 L 245.527344 255.660156 L 235.332031 255.660156 L 235.332031 296.363281 L 225.140625 296.363281 L 225.140625 306.539062 L 214.945312 306.539062 L 214.945312 326.890625 L 204.753906 326.890625 L 204.753906 316.714844 L 174.171875 316.714844 L 174.171875 326.890625 L 163.980469 326.890625 L 163.980469 337.070312 L 153.789062 337.070312 L 153.789062 347.246094 L 143.59375 347.246094 L 143.59375 367.597656 L 123.207031 367.597656 L 123.207031 377.773438 L 102.820312 377.773438 L 102.820312 387.949219 L 92.628906 387.949219 L 92.628906 377.773438 L 62.046875 377.773438 L 62.046875 387.949219 L 41.660156 387.949219 L 41.660156 398.125 L 31.46875 398.125 L 31.46875 418.476562 L 41.660156 418.476562 L 41.660156 428.652344 L 653.257812 428.652344 L 653.257812 418.476562 L 663.449219 418.476562 L 663.449219 398.125 L 673.640625 398.125 L 673.640625 377.773438 Z M 663.449219 377.773438 " fill-opacity="1" fill-rule="nonzero"/></g><path fill="#5561d3" d="M 316.878906 255.660156 L 316.878906 225.132812 L 306.6875 225.132812 L 306.6875 245.484375 L 296.492188 245.484375 L 296.492188 276.011719 L 306.6875 276.011719 L 306.6875 255.660156 Z M 316.878906 255.660156 " fill-opacity="1" fill-rule="nonzero"/><path fill="#5561d3" d="M 316.878906 214.957031 L 337.265625 214.957031 L 337.265625 225.132812 L 316.878906 225.132812 Z M 316.878906 214.957031 " fill-opacity="1" fill-rule="nonzero"/><path fill="#5561d3" d="M 306.6875 276.011719 L 316.878906 276.011719 L 316.878906 296.363281 L 306.6875 296.363281 Z M 306.6875 276.011719 " fill-opacity="1" fill-rule="nonzero"/><path fill="#5561d3" d="M 347.457031 316.714844 L 347.457031 306.539062 L 337.265625 306.539062 L 337.265625 296.363281 L 316.878906 296.363281 L 316.878906 306.539062 L 327.074219 306.539062 L 327.074219 316.714844 L 337.265625 316.714844 L 337.265625 326.890625 L 357.652344 326.890625 L 357.652344 316.714844 Z M 347.457031 316.714844 " fill-opacity="1" fill-rule="nonzero"/><path fill="#5561d3" d="M 388.230469 235.308594 L 408.617188 235.308594 L 408.617188 245.484375 L 388.230469 245.484375 Z M 388.230469 235.308594 " fill-opacity="1" fill-rule="nonzero"/><path fill="#5561d3" d="M 378.039062 245.484375 L 388.230469 245.484375 L 388.230469 255.660156 L 378.039062 255.660156 Z M 378.039062 245.484375 " fill-opacity="1" fill-rule="nonzero"/><path fill="#5561d3" d="M 367.84375 255.660156 L 378.039062 255.660156 L 378.039062 286.1875 L 367.84375 286.1875 Z M 367.84375 255.660156 " fill-opacity="1" fill-rule="nonzero"/><path fill="#5561d3" d="M 378.039062 286.1875 L 388.230469 286.1875 L 388.230469 306.539062 L 378.039062 306.539062 Z M 378.039062 286.1875 " fill-opacity="1" fill-rule="nonzero"/><path fill="#5561d3" d="M 388.230469 306.539062 L 398.425781 306.539062 L 398.425781 316.714844 L 388.230469 316.714844 Z M 388.230469 306.539062 " fill-opacity="1" fill-rule="nonzero"/><path fill="#5561d3" d="M 398.425781 316.714844 L 418.8125 316.714844 L 418.8125 326.890625 L 398.425781 326.890625 Z M 398.425781 316.714844 " fill-opacity="1" fill-rule="nonzero"/><path fill="#5561d3" d="M 418.8125 326.890625 L 439.199219 326.890625 L 439.199219 337.070312 L 418.8125 337.070312 Z M 418.8125 326.890625 " fill-opacity="1" fill-rule="nonzero"/><path fill="#5561d3" d="M 439.199219 316.714844 L 459.585938 316.714844 L 459.585938 326.890625 L 439.199219 326.890625 Z M 439.199219 316.714844 " fill-opacity="1" fill-rule="nonzero"/><g clip-path="url(#ad6cab6a06)"><path fill="#5561d3" d="M 643.0625 398.125 L 643.0625 408.300781 L 622.675781 408.300781 L 622.675781 398.125 L 602.289062 398.125 L 602.289062 387.949219 L 581.902344 387.949219 L 581.902344 377.773438 L 571.710938 377.773438 L 571.710938 357.421875 L 551.324219 357.421875 L 551.324219 367.597656 L 510.550781 367.597656 L 510.550781 377.773438 L 459.585938 377.773438 L 459.585938 367.597656 L 429.003906 367.597656 L 429.003906 357.421875 L 398.425781 357.421875 L 398.425781 347.246094 L 388.230469 347.246094 L 388.230469 337.070312 L 398.425781 337.070312 L 398.425781 326.890625 L 357.652344 326.890625 L 357.652344 337.070312 L 367.84375 337.070312 L 367.84375 347.246094 L 378.039062 347.246094 L 378.039062 357.421875 L 357.652344 357.421875 L 357.652344 367.597656 L 286.300781 367.597656 L 286.300781 357.421875 L 265.914062 357.421875 L 265.914062 347.246094 L 245.527344 347.246094 L 245.527344 337.070312 L 225.140625 337.070312 L 225.140625 316.714844 L 235.332031 316.714844 L 235.332031 296.363281 L 225.140625 296.363281 L 225.140625 306.539062 L 214.945312 306.539062 L 214.945312 347.246094 L 225.140625 347.246094 L 225.140625 357.421875 L 235.332031 357.421875 L 235.332031 367.597656 L 214.945312 367.597656 L 214.945312 377.773438 L 204.753906 377.773438 L 204.753906 398.125 L 184.367188 398.125 L 184.367188 387.949219 L 174.171875 387.949219 L 174.171875 377.773438 L 163.980469 377.773438 L 163.980469 367.597656 L 153.789062 367.597656 L 153.789062 347.246094 L 143.59375 347.246094 L 143.59375 367.597656 L 133.402344 367.597656 L 133.402344 387.949219 L 123.207031 387.949219 L 123.207031 398.125 L 113.015625 398.125 L 113.015625 408.300781 L 51.855469 408.300781 L 51.855469 387.949219 L 41.660156 387.949219 L 41.660156 398.125 L 31.46875 398.125 L 31.46875 418.476562 L 41.660156 418.476562 L 41.660156 428.652344 L 653.257812 428.652344 L 653.257812 418.476562 L 663.449219 418.476562 L 663.449219 398.125 Z M 643.0625 398.125 " fill-opacity="1" fill-rule="nonzero"/></g><path fill="#8e68e6" d="M 62.046875 387.949219 L 51.855469 387.949219 L 51.855469 408.300781 L 113.015625 408.300781 L 113.015625 398.125 L 62.046875 398.125 Z M 62.046875 387.949219 " fill-opacity="1" fill-rule="nonzero"/><path fill="#8e68e6" d="M 123.207031 367.597656 L 133.402344 367.597656 L 133.402344 387.949219 L 123.207031 387.949219 Z M 123.207031 367.597656 " fill-opacity="1" fill-rule="nonzero"/><path fill="#8e68e6" d="M 163.980469 357.421875 L 163.980469 337.070312 L 153.789062 337.070312 L 153.789062 367.597656 L 163.980469 367.597656 L 163.980469 377.773438 L 174.171875 377.773438 L 174.171875 357.421875 Z M 163.980469 357.421875 " fill-opacity="1" fill-rule="nonzero"/><path fill="#8e68e6" d="M 174.171875 377.773438 L 174.171875 387.949219 L 184.367188 387.949219 L 184.367188 398.125 L 204.753906 398.125 L 204.753906 377.773438 Z M 174.171875 377.773438 " fill-opacity="1" fill-rule="nonzero"/><path fill="#8e68e6" d="M 255.71875 337.070312 L 255.71875 326.890625 L 245.527344 326.890625 L 245.527344 286.1875 L 235.332031 286.1875 L 235.332031 316.714844 L 225.140625 316.714844 L 225.140625 337.070312 L 245.527344 337.070312 L 245.527344 347.246094 L 265.914062 347.246094 L 265.914062 337.070312 Z M 255.71875 337.070312 " fill-opacity="1" fill-rule="nonzero"/><path fill="#8e68e6" d="M 286.300781 347.246094 L 265.914062 347.246094 L 265.914062 367.597656 L 286.300781 367.597656 L 286.300781 377.773438 L 357.652344 377.773438 L 357.652344 357.421875 L 286.300781 357.421875 Z M 286.300781 347.246094 " fill-opacity="1" fill-rule="nonzero"/><path fill="#8e68e6" d="M 357.652344 347.246094 L 378.039062 347.246094 L 378.039062 357.421875 L 357.652344 357.421875 Z M 357.652344 347.246094 " fill-opacity="1" fill-rule="nonzero"/><path fill="#8e68e6" d="M 327.074219 387.949219 L 337.265625 387.949219 L 337.265625 398.125 L 327.074219 398.125 Z M 327.074219 387.949219 " fill-opacity="1" fill-rule="nonzero"/><path fill="#8e68e6" d="M 367.84375 367.597656 L 388.230469 367.597656 L 388.230469 387.949219 L 367.84375 387.949219 Z M 367.84375 367.597656 " fill-opacity="1" fill-rule="nonzero"/><path fill="#8e68e6" d="M 225.140625 377.773438 L 245.527344 377.773438 L 245.527344 398.125 L 225.140625 398.125 Z M 225.140625 377.773438 " fill-opacity="1" fill-rule="nonzero"/><path fill="#8e68e6" d="M 143.59375 377.773438 L 153.789062 377.773438 L 153.789062 387.949219 L 143.59375 387.949219 Z M 143.59375 377.773438 " fill-opacity="1" fill-rule="nonzero"/><path fill="#8e68e6" d="M 123.207031 398.125 L 133.402344 398.125 L 133.402344 408.300781 L 123.207031 408.300781 Z M 123.207031 398.125 " fill-opacity="1" fill-rule="nonzero"/><path fill="#8e68e6" d="M 143.59375 398.125 L 163.980469 398.125 L 163.980469 418.476562 L 143.59375 418.476562 Z M 143.59375 398.125 " fill-opacity="1" fill-rule="nonzero"/><path fill="#8e68e6" d="M 276.105469 377.773438 L 265.914062 377.773438 L 265.914062 398.125 L 316.878906 398.125 L 316.878906 387.949219 L 276.105469 387.949219 Z M 276.105469 377.773438 " fill-opacity="1" fill-rule="nonzero"/><path fill="#8e68e6" d="M 429.003906 377.773438 L 449.390625 377.773438 L 449.390625 387.949219 L 429.003906 387.949219 Z M 429.003906 377.773438 " fill-opacity="1" fill-rule="nonzero"/><path fill="#8e68e6" d="M 408.617188 347.246094 L 408.617188 326.890625 L 398.425781 326.890625 L 398.425781 337.070312 L 388.230469 337.070312 L 388.230469 347.246094 L 398.425781 347.246094 L 398.425781 357.421875 L 429.003906 357.421875 L 429.003906 347.246094 Z M 408.617188 347.246094 " fill-opacity="1" fill-rule="nonzero"/><path fill="#8e68e6" d="M 306.6875 255.660156 L 316.878906 255.660156 L 316.878906 276.011719 L 306.6875 276.011719 Z M 306.6875 255.660156 " fill-opacity="1" fill-rule="nonzero"/><path fill="#8e68e6" d="M 327.074219 286.1875 L 327.074219 276.011719 L 316.878906 276.011719 L 316.878906 296.363281 L 337.265625 296.363281 L 337.265625 286.1875 Z M 327.074219 286.1875 " fill-opacity="1" fill-rule="nonzero"/><path fill="#8e68e6" d="M 337.265625 296.363281 L 347.457031 296.363281 L 347.457031 306.539062 L 337.265625 306.539062 Z M 337.265625 296.363281 " fill-opacity="1" fill-rule="nonzero"/><path fill="#8e68e6" d="M 388.230469 316.714844 L 388.230469 306.539062 L 347.457031 306.539062 L 347.457031 316.714844 L 357.652344 316.714844 L 357.652344 326.890625 L 398.425781 326.890625 L 398.425781 316.714844 Z M 388.230469 316.714844 " fill-opacity="1" fill-rule="nonzero"/><path fill="#8e68e6" d="M 551.324219 357.421875 L 561.515625 357.421875 L 561.515625 337.070312 L 551.324219 337.070312 L 551.324219 347.246094 L 510.550781 347.246094 L 510.550781 357.421875 L 429.003906 357.421875 L 429.003906 367.597656 L 459.585938 367.597656 L 459.585938 377.773438 L 510.550781 377.773438 L 510.550781 367.597656 L 551.324219 367.597656 Z M 551.324219 357.421875 " fill-opacity="1" fill-rule="nonzero"/><path fill="#8e68e6" d="M 581.902344 367.597656 L 581.902344 357.421875 L 571.710938 357.421875 L 571.710938 377.773438 L 581.902344 377.773438 L 581.902344 387.949219 L 602.289062 387.949219 L 602.289062 367.597656 Z M 581.902344 367.597656 " fill-opacity="1" fill-rule="nonzero"/><path fill="#8e68e6" d="M 602.289062 387.949219 L 622.675781 387.949219 L 622.675781 398.125 L 602.289062 398.125 Z M 602.289062 387.949219 " fill-opacity="1" fill-rule="nonzero"/><path fill="#8e68e6" d="M 622.675781 398.125 L 643.0625 398.125 L 643.0625 408.300781 L 622.675781 408.300781 Z M 622.675781 398.125 " fill-opacity="1" fill-rule="nonzero"/><g clip-path="url(#96d8cca9e6)"><path fill="#8e68e6" d="M 643.0625 387.949219 L 673.640625 387.949219 L 673.640625 398.125 L 643.0625 398.125 Z M 643.0625 387.949219 " fill-opacity="1" fill-rule="nonzero"/></g><path fill="#8e68e6" d="M 571.710938 387.949219 L 551.324219 387.949219 L 551.324219 398.125 L 561.515625 398.125 L 561.515625 408.300781 L 592.097656 408.300781 L 592.097656 398.125 L 571.710938 398.125 Z M 571.710938 387.949219 " fill-opacity="1" fill-rule="nonzero"/><path fill="#8e68e6" d="M 520.742188 377.773438 L 551.324219 377.773438 L 551.324219 387.949219 L 520.742188 387.949219 Z M 520.742188 377.773438 " fill-opacity="1" fill-rule="nonzero"/><path fill="#fb6ba2" d="M 276.105469 337.070312 L 276.105469 316.714844 L 265.914062 316.714844 L 265.914062 276.011719 L 245.527344 276.011719 L 245.527344 265.835938 L 255.71875 265.835938 L 255.71875 245.484375 L 245.527344 245.484375 L 245.527344 255.660156 L 235.332031 255.660156 L 235.332031 286.1875 L 245.527344 286.1875 L 245.527344 326.890625 L 255.71875 326.890625 L 255.71875 337.070312 L 265.914062 337.070312 L 265.914062 347.246094 L 286.300781 347.246094 L 286.300781 337.070312 Z M 276.105469 337.070312 " fill-opacity="1" fill-rule="nonzero"/><path fill="#fb6ba2" d="M 286.300781 347.246094 L 357.652344 347.246094 L 357.652344 357.421875 L 286.300781 357.421875 Z M 286.300781 347.246094 " fill-opacity="1" fill-rule="nonzero"/><path fill="#fb6ba2" d="M 276.105469 265.835938 L 276.105469 255.660156 L 265.914062 255.660156 L 265.914062 276.011719 L 276.105469 276.011719 Z M 276.105469 265.835938 " fill-opacity="1" fill-rule="nonzero"/><path fill="#fb6ba2" d="M 276.105469 245.484375 L 286.300781 245.484375 L 286.300781 255.660156 L 276.105469 255.660156 Z M 276.105469 245.484375 " fill-opacity="1" fill-rule="nonzero"/><path fill="#fb6ba2" d="M 357.652344 337.070312 L 367.84375 337.070312 L 367.84375 347.246094 L 357.652344 347.246094 Z M 357.652344 337.070312 " fill-opacity="1" fill-rule="nonzero"/><path fill="#fb6ba2" d="M 184.367188 357.421875 L 174.171875 357.421875 L 174.171875 377.773438 L 214.945312 377.773438 L 214.945312 367.597656 L 184.367188 367.597656 Z M 184.367188 357.421875 " fill-opacity="1" fill-rule="nonzero"/><path fill="#fb6ba2" d="M 72.242188 377.773438 L 62.046875 377.773438 L 62.046875 398.125 L 92.628906 398.125 L 92.628906 387.949219 L 72.242188 387.949219 Z M 72.242188 377.773438 " fill-opacity="1" fill-rule="nonzero"/><path fill="#fb6ba2" d="M 102.820312 387.949219 L 123.207031 387.949219 L 123.207031 398.125 L 102.820312 398.125 Z M 102.820312 387.949219 " fill-opacity="1" fill-rule="nonzero"/><g clip-path="url(#b1291b161f)"><path fill="#fb6ba2" d="M 347.457031 214.957031 L 357.652344 214.957031 L 357.652344 204.78125 L 337.265625 204.78125 L 337.265625 225.132812 L 347.457031 225.132812 Z M 347.457031 214.957031 " fill-opacity="1" fill-rule="nonzero"/></g><path fill="#fb6ba2" d="M 327.074219 265.835938 L 327.074219 235.308594 L 337.265625 235.308594 L 337.265625 225.132812 L 316.878906 225.132812 L 316.878906 276.011719 L 327.074219 276.011719 L 327.074219 286.1875 L 337.265625 286.1875 L 337.265625 265.835938 Z M 327.074219 265.835938 " fill-opacity="1" fill-rule="nonzero"/><path fill="#fb6ba2" d="M 337.265625 286.1875 L 347.457031 286.1875 L 347.457031 296.363281 L 337.265625 296.363281 Z M 337.265625 286.1875 " fill-opacity="1" fill-rule="nonzero"/><path fill="#fb6ba2" d="M 347.457031 296.363281 L 378.039062 296.363281 L 378.039062 306.539062 L 347.457031 306.539062 Z M 347.457031 296.363281 " fill-opacity="1" fill-rule="nonzero"/><path fill="#fb6ba2" d="M 337.265625 245.484375 L 347.457031 245.484375 L 347.457031 255.660156 L 337.265625 255.660156 Z M 337.265625 245.484375 " fill-opacity="1" fill-rule="nonzero"/><path fill="#fb6ba2" d="M 184.367188 337.070312 L 184.367188 326.890625 L 194.558594 326.890625 L 194.558594 316.714844 L 174.171875 316.714844 L 174.171875 326.890625 L 163.980469 326.890625 L 163.980469 357.421875 L 174.171875 357.421875 L 174.171875 337.070312 Z M 184.367188 337.070312 " fill-opacity="1" fill-rule="nonzero"/><path fill="#fb6ba2" d="M 225.140625 347.246094 L 214.945312 347.246094 L 214.945312 367.597656 L 235.332031 367.597656 L 235.332031 357.421875 L 225.140625 357.421875 Z M 225.140625 347.246094 " fill-opacity="1" fill-rule="nonzero"/><path fill="#fb6ba2" d="M 204.753906 326.890625 L 214.945312 326.890625 L 214.945312 347.246094 L 204.753906 347.246094 Z M 204.753906 326.890625 " fill-opacity="1" fill-rule="nonzero"/><path fill="#fb6ba2" d="M 378.039062 255.660156 L 388.230469 255.660156 L 388.230469 286.1875 L 378.039062 286.1875 Z M 378.039062 255.660156 " fill-opacity="1" fill-rule="nonzero"/><path fill="#fb6ba2" d="M 388.230469 286.1875 L 398.425781 286.1875 L 398.425781 306.539062 L 388.230469 306.539062 Z M 388.230469 286.1875 " fill-opacity="1" fill-rule="nonzero"/><path fill="#fb6ba2" d="M 398.425781 306.539062 L 418.8125 306.539062 L 418.8125 316.714844 L 398.425781 316.714844 Z M 398.425781 306.539062 " fill-opacity="1" fill-rule="nonzero"/><path fill="#fb6ba2" d="M 418.8125 316.714844 L 439.199219 316.714844 L 439.199219 326.890625 L 418.8125 326.890625 Z M 418.8125 316.714844 " fill-opacity="1" fill-rule="nonzero"/><path fill="#fb6ba2" d="M 530.9375 337.070312 L 490.164062 337.070312 L 490.164062 347.246094 L 439.199219 347.246094 L 439.199219 337.070312 L 418.8125 337.070312 L 418.8125 326.890625 L 408.617188 326.890625 L 408.617188 347.246094 L 429.003906 347.246094 L 429.003906 357.421875 L 510.550781 357.421875 L 510.550781 347.246094 L 551.324219 347.246094 L 551.324219 326.890625 L 530.9375 326.890625 Z M 530.9375 337.070312 " fill-opacity="1" fill-rule="nonzero"/><path fill="#fb6ba2" d="M 439.199219 306.539062 L 459.585938 306.539062 L 459.585938 316.714844 L 439.199219 316.714844 Z M 439.199219 306.539062 " fill-opacity="1" fill-rule="nonzero"/><path fill="#fb6ba2" d="M 459.585938 296.363281 L 469.777344 296.363281 L 469.777344 306.539062 L 459.585938 306.539062 Z M 459.585938 296.363281 " fill-opacity="1" fill-rule="nonzero"/><path fill="#fb6ba2" d="M 592.097656 357.421875 L 592.097656 347.246094 L 581.902344 347.246094 L 581.902344 367.597656 L 602.289062 367.597656 L 602.289062 357.421875 Z M 592.097656 357.421875 " fill-opacity="1" fill-rule="nonzero"/><path fill="#fb6ba2" d="M 612.484375 377.773438 L 612.484375 367.597656 L 602.289062 367.597656 L 602.289062 387.949219 L 622.675781 387.949219 L 622.675781 377.773438 Z M 612.484375 377.773438 " fill-opacity="1" fill-rule="nonzero"/><path fill="#fb6ba2" d="M 622.675781 387.949219 L 643.0625 387.949219 L 643.0625 398.125 L 622.675781 398.125 Z M 622.675781 387.949219 " fill-opacity="1" fill-rule="nonzero"/><g clip-path="url(#1cb0dbfdf1)"><path fill="#fb6ba2" d="M 663.449219 377.773438 L 663.449219 367.597656 L 653.257812 367.597656 L 653.257812 377.773438 L 643.0625 377.773438 L 643.0625 387.949219 L 673.640625 387.949219 L 673.640625 377.773438 Z M 663.449219 377.773438 " fill-opacity="1" fill-rule="nonzero"/></g><path fill="#fb6ba2" d="M 316.878906 306.539062 L 327.074219 306.539062 L 327.074219 316.714844 L 316.878906 316.714844 Z M 316.878906 306.539062 " fill-opacity="1" fill-rule="nonzero"/><path fill="#fb6ba2" d="M 327.074219 316.714844 L 337.265625 316.714844 L 337.265625 326.890625 L 327.074219 326.890625 Z M 327.074219 316.714844 " fill-opacity="1" fill-rule="nonzero"/><path fill="#fb6ba2" d="M 337.265625 326.890625 L 357.652344 326.890625 L 357.652344 337.070312 L 337.265625 337.070312 Z M 337.265625 326.890625 " fill-opacity="1" fill-rule="nonzero"/><path fill="#ffe14d" d="M 357.652344 225.132812 L 378.039062 225.132812 L 378.039062 235.308594 L 357.652344 235.308594 Z M 357.652344 225.132812 " fill-opacity="1" fill-rule="nonzero"/><path fill="#ffe14d" d="M 378.039062 214.957031 L 388.230469 214.957031 L 388.230469 225.132812 L 378.039062 225.132812 Z M 378.039062 214.957031 " fill-opacity="1" fill-rule="nonzero"/><path fill="#ffe14d" d="M 388.230469 225.132812 L 398.425781 225.132812 L 398.425781 235.308594 L 388.230469 235.308594 Z M 388.230469 225.132812 " fill-opacity="1" fill-rule="nonzero"/><path fill="#ffe14d" d="M 418.8125 235.308594 L 439.199219 235.308594 L 439.199219 245.484375 L 418.8125 245.484375 Z M 418.8125 235.308594 " fill-opacity="1" fill-rule="nonzero"/><path fill="#ffe14d" d="M 408.617188 255.660156 L 429.003906 255.660156 L 429.003906 265.835938 L 408.617188 265.835938 Z M 408.617188 255.660156 " fill-opacity="1" fill-rule="nonzero"/><path fill="#ffe14d" d="M 429.003906 276.011719 L 439.199219 276.011719 L 439.199219 286.1875 L 429.003906 286.1875 Z M 429.003906 276.011719 " fill-opacity="1" fill-rule="nonzero"/><path fill="#ffe14d" d="M 276.105469 225.132812 L 306.6875 225.132812 L 306.6875 235.308594 L 276.105469 235.308594 Z M 276.105469 225.132812 " fill-opacity="1" fill-rule="nonzero"/><g clip-path="url(#3390ec10ca)"><path fill="#ffe14d" d="M 357.652344 204.78125 L 378.039062 204.78125 L 378.039062 214.957031 L 357.652344 214.957031 Z M 357.652344 204.78125 " fill-opacity="1" fill-rule="nonzero"/></g><path fill="#ffe14d" d="M 439.199219 245.484375 L 449.390625 245.484375 L 449.390625 255.660156 L 439.199219 255.660156 Z M 439.199219 245.484375 " fill-opacity="1" fill-rule="nonzero"/><path fill="#ffe14d" d="M 459.585938 265.835938 L 469.777344 265.835938 L 469.777344 276.011719 L 459.585938 276.011719 Z M 459.585938 265.835938 " fill-opacity="1" fill-rule="nonzero"/><path fill="#ffe14d" d="M 612.484375 347.246094 L 632.871094 347.246094 L 632.871094 357.421875 L 612.484375 357.421875 Z M 612.484375 347.246094 " fill-opacity="1" fill-rule="nonzero"/><path fill="#ffe14d" d="M 632.871094 357.421875 L 653.257812 357.421875 L 653.257812 367.597656 L 632.871094 367.597656 Z M 632.871094 357.421875 " fill-opacity="1" fill-rule="nonzero"/><path fill="#ffe14d" d="M 469.777344 286.1875 L 479.972656 286.1875 L 479.972656 306.539062 L 469.777344 306.539062 Z M 469.777344 286.1875 " fill-opacity="1" fill-rule="nonzero"/><path fill="#ffe14d" d="M 479.972656 306.539062 L 510.550781 306.539062 L 510.550781 316.714844 L 479.972656 316.714844 Z M 479.972656 306.539062 " fill-opacity="1" fill-rule="nonzero"/><path fill="#ffe14d" d="M 520.742188 316.714844 L 530.9375 316.714844 L 530.9375 326.890625 L 520.742188 326.890625 Z M 520.742188 316.714844 " fill-opacity="1" fill-rule="nonzero"/><path fill="#ffe14d" d="M 469.777344 316.714844 L 479.972656 316.714844 L 479.972656 326.890625 L 469.777344 326.890625 Z M 469.777344 316.714844 " fill-opacity="1" fill-rule="nonzero"/><path fill="#ffe14d" d="M 398.425781 265.835938 L 408.617188 265.835938 L 408.617188 276.011719 L 398.425781 276.011719 Z M 398.425781 265.835938 " fill-opacity="1" fill-rule="nonzero"/></svg>