<svg xmlns="http://www.w3.org/2000/svg" xmlns:xlink="http://www.w3.org/1999/xlink" width="940" zoomAndPan="magnify" viewBox="0 0 705 591.000005" height="788" preserveAspectRatio="xMidYMid meet" version="1.0"><defs><clipPath id="a31f908c4f"><path d="M 17.199219 188 L 696.503906 188 L 696.503906 485.523438 L 17.199219 485.523438 Z M 17.199219 188 " clip-rule="nonzero"/></clipPath><clipPath id="fb098ca61e"><path d="M 8.589844 43.761719 L 687 43.761719 L 687 577.605469 L 8.589844 577.605469 Z M 8.589844 43.761719 " clip-rule="nonzero"/></clipPath></defs><g clip-path="url(#a31f908c4f)"><path fill="#53bfa4" d="M 686.078125 479.585938 C 644.269531 477.054688 50.011719 484.078125 20.824219 485.128906 C 1.796875 485.804688 76.425781 388.425781 95.601562 362.691406 C 107.753906 346.375 120.101562 330.199219 132.636719 314.175781 C 143.652344 300.085938 154.167969 284.410156 167.453125 272.335938 C 178.324219 262.457031 191.433594 257.707031 206.136719 259.925781 C 221.996094 262.3125 236.75 270.855469 250.1875 279.171875 C 264.011719 287.726562 277.046875 297.582031 289.0625 308.535156 C 300.222656 318.710938 316.769531 339.289062 331.511719 322.984375 C 343.6875 309.519531 354.480469 294.464844 365.34375 279.945312 C 376.167969 265.476562 386.667969 250.765625 396.839844 235.828125 C 411.863281 213.765625 429.386719 186.445312 459.800781 188.226562 C 490.964844 190.054688 511.082031 216.351562 526.027344 240.796875 C 544.355469 270.792969 560.003906 302.613281 581.550781 330.542969 C 600.429688 355.019531 623.351562 375.945312 643.777344 399.058594 C 653.847656 410.449219 722.15625 481.769531 686.078125 479.585938 " fill-opacity="1" fill-rule="nonzero"/></g><path fill="#62c780" d="M 656.597656 452.222656 C 641.671875 440.988281 623.742188 434.058594 605.21875 431.878906 C 584.617188 429.453125 566.183594 434.0625 547.203125 441.695312 C 535.347656 446.457031 523.773438 450.34375 510.871094 447.910156 C 499.488281 445.757812 488.753906 442.691406 477.074219 442.40625 C 464.9375 442.113281 452.65625 443.8125 441.058594 447.394531 C 428.953125 451.125 417.730469 459.257812 405.058594 460.714844 C 392.152344 462.199219 379.800781 457.292969 366.867188 460.605469 C 355.011719 463.636719 347.886719 468.195312 338.300781 475.496094 C 329.328125 482.335938 333.304688 483.625 335.558594 484.101562 C 341.371094 485.347656 548.640625 481.226562 654.222656 479.519531 C 660.0625 479.421875 673.828125 481.234375 673.644531 471.691406 C 673.5 463.925781 662.082031 456.347656 656.597656 452.222656 Z M 214.933594 467.90625 C 210.21875 467.90625 199.082031 468.332031 194.398438 468.234375 C 186.878906 468.082031 184.574219 462.03125 179.910156 457.40625 C 173.792969 451.34375 164.761719 448.632812 156.328125 450.484375 C 146.074219 452.738281 137.90625 462.542969 127.125 462.324219 C 116.53125 462.113281 107.300781 453.921875 97.199219 451.21875 C 89.003906 449.023438 80.335938 448.808594 71.988281 450.222656 C 54.171875 453.230469 38.261719 463.65625 29.058594 479.273438 C 27.671875 481.621094 29.664062 484.199219 32.125 484.296875 C 99.777344 486.992188 232.855469 487.855469 241.925781 482.964844 C 250.167969 478.515625 237.488281 467.90625 214.933594 467.90625 Z M 407.582031 252.292969 C 414.300781 247.375 422.59375 241.246094 431.476562 242.894531 C 439.539062 244.378906 444.253906 254.339844 450.777344 258.867188 C 462.757812 267.167969 475.015625 265.640625 485.398438 255.96875 C 492.382812 249.464844 498.199219 243.195312 508.449219 247.878906 C 516.484375 251.554688 521.960938 259.050781 529.503906 263.515625 C 533.167969 265.691406 539.136719 268.582031 542.390625 264.054688 C 546.597656 258.207031 537.242188 248.660156 534.480469 244.328125 C 524.871094 229.296875 516.03125 213.054688 504.351562 199.5 C 492.652344 185.925781 476.484375 177.09375 458.214844 180.421875 C 440.480469 183.648438 424.28125 195.164062 412.496094 208.546875 C 410.226562 210.714844 408.027344 212.980469 405.921875 215.328125 C 400.148438 221.742188 394.960938 228.683594 390.058594 235.773438 C 387.210938 239.890625 384.402344 244.054688 381.722656 248.289062 C 380.136719 250.796875 378.140625 253.539062 378.152344 256.664062 C 378.210938 272.785156 403.292969 255.433594 407.582031 252.292969 Z M 297.914062 319.464844 C 294.660156 324.8125 285.003906 321.34375 280.328125 320.441406 C 272.042969 318.839844 263.820312 316.601562 256.410156 312.472656 C 251.957031 309.992188 247.75 306.242188 242.320312 306.65625 C 236.878906 307.078125 233 310.765625 231.296875 315.710938 C 229.285156 321.554688 229.929688 328.117188 226.800781 333.628906 C 219.832031 345.917969 203.625 341.015625 194.988281 333.425781 C 189.335938 328.46875 186.847656 321.453125 182.023438 315.914062 C 173.691406 306.367188 162.671875 316.015625 154.554688 321.125 C 146.191406 326.386719 137.425781 333.757812 128.230469 337.398438 C 124.128906 339.023438 118.472656 338.375 116.867188 333.515625 C 114.636719 326.761719 124.054688 318.671875 127.652344 314.035156 C 133.527344 306.472656 139.460938 298.941406 145.5625 291.554688 C 155.929688 279.007812 168.070312 260.75 184.546875 255.824219 C 194.703125 251.421875 207.179688 252.265625 217.539062 256.121094 C 226.3125 259.386719 233.402344 264.675781 240.417969 270.738281 C 248.914062 278.089844 283.019531 299.621094 289.996094 305.492188 C 293.511719 308.449219 301.40625 313.734375 297.914062 319.464844 " fill-opacity="1" fill-rule="nonzero"/><path fill="#3c6d9b" d="M 529.660156 265.503906 C 526.050781 264.683594 522.988281 262.058594 520.664062 259.027344 C 519.480469 257.5 518.421875 255.839844 517.460938 254.117188 C 516.484375 252.378906 515.566406 250.5 514.289062 248.691406 C 513.65625 247.789062 512.925781 246.898438 512.0625 246.109375 C 511.636719 245.710938 511.167969 245.335938 510.667969 245.023438 C 510.164062 244.707031 509.691406 244.34375 509.132812 244.121094 C 506.992188 243.050781 504.546875 242.695312 502.257812 242.886719 C 497.644531 243.300781 493.605469 245.351562 490.132812 247.878906 C 488.402344 249.140625 486.753906 250.621094 485.296875 252.113281 L 481.035156 256.484375 C 478.222656 259.308594 475.328125 261.992188 472.050781 263.601562 C 468.804688 265.238281 465.160156 265.5625 461.769531 264.441406 C 458.363281 263.355469 455.222656 261.023438 452.285156 258.40625 C 449.320312 255.78125 446.507812 252.832031 443.398438 250.03125 C 440.289062 247.273438 436.835938 244.507812 432.484375 243.027344 C 430.328125 242.300781 427.96875 241.980469 425.667969 242.179688 C 423.347656 242.339844 421.117188 243.117188 419.128906 244.140625 C 415.152344 246.28125 412.117188 249.402344 409.429688 252.570312 C 406.761719 255.734375 404.347656 258.949219 401.476562 261.566406 C 400.0625 262.882812 398.527344 264.03125 396.851562 264.902344 C 395.238281 265.761719 393.398438 266.21875 391.542969 266.339844 C 387.871094 266.546875 383.875 265.140625 382.25 261.832031 L 380.523438 262.609375 C 381.417969 264.703125 383.128906 266.453125 385.152344 267.449219 C 387.164062 268.496094 389.414062 268.867188 391.617188 268.882812 C 393.824219 268.84375 396.0625 268.398438 398.097656 267.4375 C 400.085938 266.515625 401.898438 265.277344 403.527344 263.890625 C 406.777344 261.089844 409.359375 257.808594 412.027344 254.828125 C 414.667969 251.867188 417.554688 249.152344 420.84375 247.507812 C 424.117188 245.875 427.800781 245.632812 431.1875 246.835938 C 434.59375 248.035156 437.671875 250.472656 440.582031 253.140625 C 443.511719 255.820312 446.328125 258.78125 449.449219 261.582031 C 452.566406 264.351562 456.058594 267.121094 460.464844 268.535156 C 462.648438 269.230469 465.015625 269.515625 467.332031 269.304688 C 469.65625 269.109375 471.910156 268.402344 473.929688 267.394531 C 477.976562 265.347656 481.125 262.351562 483.996094 259.382812 L 488.207031 254.9375 C 489.574219 253.5 490.953125 252.226562 492.5 251.0625 C 495.542969 248.78125 499.046875 246.960938 502.585938 246.558594 C 506.136719 246.125 509.441406 247.59375 511.574219 250.652344 C 512.695312 252.148438 513.636719 253.90625 514.703125 255.699219 C 515.78125 257.5 516.945312 259.277344 518.332031 260.910156 C 521.070312 264.148438 524.679688 267.070312 529.160156 267.898438 C 531.339844 268.296875 533.609375 268.257812 535.753906 267.605469 C 537.894531 266.992188 539.878906 265.683594 541.234375 263.882812 L 539.816406 262.773438 C 537.429688 265.605469 533.242188 266.351562 529.660156 265.503906 Z M 287.367188 323.375 C 289.390625 322.054688 291.207031 320.363281 292.554688 318.316406 C 293.898438 316.277344 294.761719 313.886719 294.914062 311.441406 L 293.121094 311.292969 C 292.609375 315.519531 289.734375 319.15625 286.0625 321.304688 C 284.230469 322.402344 282.207031 323.1875 280.125 323.617188 C 278.058594 324.070312 275.917969 324.089844 273.765625 323.859375 C 269.476562 323.414062 265.292969 321.917969 261.3125 319.96875 C 259.316406 318.996094 257.355469 317.914062 255.410156 316.78125 C 253.433594 315.628906 251.410156 314.484375 249.3125 313.441406 C 245.136719 311.402344 240.605469 309.480469 235.460938 309.4375 C 232.910156 309.425781 230.230469 310.023438 227.925781 311.351562 C 227.378906 311.71875 226.777344 312.015625 226.277344 312.445312 L 224.78125 313.738281 C 223.917969 314.703125 223.054688 315.6875 222.417969 316.769531 C 219.726562 321.050781 218.621094 325.65625 217.085938 329.804688 C 216.328125 331.871094 215.492188 333.855469 214.410156 335.523438 C 213.328125 337.210938 211.933594 338.410156 210.253906 339.0625 C 206.980469 340.554688 202.8125 339.214844 199.496094 336.800781 C 196.152344 334.410156 193.433594 330.75 190.113281 327.382812 C 188.457031 325.691406 186.558594 324.070312 184.417969 322.789062 C 182.292969 321.503906 179.988281 320.550781 177.605469 319.929688 C 172.847656 318.675781 167.75 318.753906 163.054688 320.238281 C 160.703125 320.96875 158.441406 322.085938 156.449219 323.445312 C 154.441406 324.792969 152.644531 326.335938 150.929688 327.875 C 147.503906 330.957031 144.335938 334.140625 140.589844 336.183594 C 136.917969 338.332031 132.558594 338.824219 128.398438 337.777344 C 124.285156 336.722656 120.488281 334.171875 118.152344 330.570312 L 116.527344 331.535156 C 118.921875 335.753906 123.070312 338.855469 127.722656 340.230469 C 130.054688 340.914062 132.519531 341.191406 134.980469 340.984375 C 137.445312 340.796875 139.878906 340.035156 142.039062 338.929688 C 146.386719 336.675781 149.785156 333.359375 153.199219 330.457031 C 156.605469 327.515625 160.085938 324.957031 164.140625 323.859375 C 168.171875 322.714844 172.539062 322.710938 176.578125 323.789062 C 178.601562 324.335938 180.542969 325.15625 182.308594 326.246094 C 184.074219 327.320312 185.667969 328.683594 187.179688 330.261719 C 190.25 333.359375 192.964844 337.199219 197.027344 340.210938 C 199.035156 341.667969 201.292969 342.894531 203.863281 343.539062 C 206.382812 344.167969 209.355469 344.21875 211.882812 343.03125 C 214.441406 342.015625 216.601562 340.015625 217.941406 337.847656 C 219.328125 335.679688 220.226562 333.417969 221.015625 331.210938 C 222.566406 326.816406 223.660156 322.417969 225.847656 318.9375 C 227.894531 315.390625 231.453125 313.359375 235.472656 313.375 C 239.511719 313.382812 243.71875 314.90625 247.707031 316.757812 C 249.714844 317.695312 251.695312 318.75 253.671875 319.839844 C 255.695312 320.957031 257.757812 322.027344 259.882812 322.996094 C 264.121094 324.933594 268.691406 326.496094 273.507812 326.839844 C 275.886719 327.007812 278.367188 326.890625 280.738281 326.273438 C 283.089844 325.679688 285.339844 324.699219 287.367188 323.375 Z M 291.746094 428.265625 C 291.484375 426.9375 291.1875 425.613281 290.792969 424.296875 C 290.421875 422.976562 290.003906 421.660156 289.363281 420.335938 L 287.480469 420.503906 C 287.09375 421.957031 287 423.414062 287.03125 424.851562 C 287.054688 426.292969 287.234375 427.722656 287.535156 429.128906 C 287.832031 430.535156 288.238281 431.917969 288.804688 433.246094 C 289.347656 434.578125 290.007812 435.878906 290.929688 437.066406 L 292.644531 436.5 C 292.695312 435.039062 292.566406 433.65625 292.398438 432.292969 C 292.238281 430.933594 292.003906 429.59375 291.746094 428.265625 Z M 234.507812 426.914062 L 232.613281 426.941406 C 232.121094 428.449219 231.875 429.953125 231.722656 431.457031 C 231.546875 432.960938 231.503906 434.460938 231.535156 435.957031 C 231.570312 437.460938 231.664062 438.960938 231.890625 440.457031 C 232.097656 441.953125 232.382812 443.449219 232.910156 444.945312 L 234.710938 444.917969 C 235.195312 443.410156 235.445312 441.90625 235.605469 440.40625 C 235.785156 438.898438 235.84375 437.398438 235.835938 435.902344 C 235.824219 434.398438 235.734375 432.898438 235.523438 431.402344 C 235.332031 429.90625 235.039062 428.410156 234.507812 426.914062 Z M 178.929688 426.347656 C 178.210938 427.832031 177.734375 429.351562 177.351562 430.882812 C 176.953125 432.410156 176.679688 433.953125 176.480469 435.503906 C 176.28125 437.0625 176.148438 438.625 176.136719 440.203125 C 176.109375 441.777344 176.164062 443.371094 176.457031 444.988281 L 178.246094 445.230469 C 178.949219 443.746094 179.425781 442.226562 179.820312 440.703125 C 180.230469 439.171875 180.515625 437.632812 180.738281 436.082031 C 180.957031 434.527344 181.101562 432.964844 181.121094 431.390625 C 181.160156 429.8125 181.101562 428.226562 180.804688 426.605469 Z M 113.035156 431.371094 C 112.46875 432.816406 112.054688 434.304688 111.738281 435.816406 C 111.429688 437.324219 111.21875 438.859375 111.15625 440.410156 C 111.082031 441.957031 111.121094 443.519531 111.4375 445.097656 L 113.226562 445.320312 C 113.914062 443.898438 114.398438 442.46875 114.828125 441.027344 C 115.269531 439.597656 115.625 438.152344 115.945312 436.707031 C 116.261719 435.257812 116.539062 433.800781 116.71875 432.308594 C 116.917969 430.824219 117.058594 429.324219 116.996094 427.738281 L 115.1875 427.195312 C 114.257812 428.511719 113.582031 429.921875 113.035156 431.371094 Z M 133.296875 372.699219 C 132.34375 373.980469 131.628906 375.335938 131.007812 376.726562 C 130.359375 378.105469 129.839844 379.519531 129.386719 380.96875 C 128.9375 382.40625 128.550781 383.871094 128.28125 385.371094 C 128 386.867188 127.792969 388.386719 127.816406 389.980469 L 129.53125 390.53125 C 130.472656 389.242188 131.183594 387.886719 131.824219 386.503906 C 132.476562 385.125 133.011719 383.707031 133.484375 382.273438 C 133.949219 380.839844 134.347656 379.375 134.628906 377.878906 C 134.917969 376.390625 135.125 374.867188 135.097656 373.269531 Z M 185.363281 373.722656 C 184.589844 375.59375 184.0625 377.492188 183.625 379.410156 C 183.175781 381.324219 182.859375 383.257812 182.59375 385.195312 C 182.359375 387.136719 182.15625 389.085938 182.089844 391.050781 C 182.011719 393.019531 182.011719 394.992188 182.253906 396.996094 L 184.039062 397.238281 C 184.804688 395.367188 185.328125 393.464844 185.777344 391.550781 C 186.238281 389.640625 186.558594 387.707031 186.847656 385.773438 C 187.105469 383.828125 187.320312 381.886719 187.394531 379.917969 C 187.480469 377.957031 187.480469 375.984375 187.234375 373.976562 Z M 230.34375 373.996094 L 228.460938 373.878906 C 227.859375 375.179688 227.507812 376.496094 227.25 377.816406 C 226.972656 379.140625 226.824219 380.46875 226.742188 381.800781 C 226.671875 383.140625 226.664062 384.480469 226.785156 385.824219 C 226.878906 387.167969 227.0625 388.519531 227.476562 389.886719 L 229.277344 390 C 229.871094 388.699219 230.21875 387.382812 230.492188 386.058594 C 230.773438 384.738281 230.9375 383.410156 231.039062 382.078125 C 231.132812 380.742188 231.148438 379.402344 231.042969 378.058594 C 230.953125 376.714844 230.773438 375.363281 230.34375 373.996094 Z M 281.046875 372.023438 C 280.667969 370.726562 280.203125 369.429688 279.5 368.179688 L 277.625 368.460938 C 277.316406 369.867188 277.257812 371.234375 277.285156 372.589844 C 277.296875 373.953125 277.429688 375.292969 277.636719 376.621094 C 277.851562 377.945312 278.128906 379.265625 278.527344 380.5625 C 278.910156 381.867188 279.375 383.15625 280.074219 384.414062 L 281.859375 384.144531 C 282.15625 382.738281 282.222656 381.371094 282.207031 380.015625 C 282.199219 378.652344 282.078125 377.3125 281.890625 375.980469 C 281.703125 374.648438 281.433594 373.324219 281.046875 372.023438 Z M 386.539062 407.277344 L 384.648438 407.183594 C 384.066406 408.441406 383.734375 409.71875 383.492188 410.996094 C 383.234375 412.273438 383.105469 413.558594 383.042969 414.847656 C 382.996094 416.136719 383.003906 417.429688 383.140625 418.730469 C 383.257812 420.023438 383.460938 421.328125 383.898438 422.640625 L 385.695312 422.734375 C 386.269531 421.476562 386.597656 420.199219 386.851562 418.917969 C 387.121094 417.640625 387.261719 416.359375 387.339844 415.070312 C 387.417969 413.78125 387.417969 412.488281 387.292969 411.195312 C 387.183594 409.894531 386.984375 408.59375 386.539062 407.277344 Z M 429.785156 403.441406 C 428.933594 405.09375 428.386719 406.839844 428.019531 408.621094 C 427.625 410.398438 427.4375 412.207031 427.390625 414.023438 C 427.351562 415.839844 427.453125 417.652344 427.742188 419.453125 C 428.023438 421.246094 428.457031 423.015625 429.191406 424.71875 L 430.976562 424.476562 C 431.253906 422.695312 431.359375 420.96875 431.460938 419.257812 C 431.574219 417.542969 431.628906 415.84375 431.691406 414.144531 C 431.753906 412.449219 431.796875 410.75 431.796875 409.042969 C 431.8125 407.328125 431.808594 405.601562 431.640625 403.804688 Z M 483.726562 412.035156 C 483.570312 410.335938 483.417969 408.644531 483.222656 406.9375 C 483.042969 405.226562 482.851562 403.507812 482.503906 401.726562 L 480.621094 401.546875 C 479.9375 403.292969 479.585938 405.113281 479.417969 406.945312 C 479.230469 408.777344 479.257812 410.628906 479.449219 412.453125 C 479.640625 414.28125 479.984375 416.097656 480.527344 417.851562 C 481.054688 419.609375 481.738281 421.324219 482.722656 422.914062 L 484.457031 422.414062 C 484.460938 420.601562 484.316406 418.871094 484.175781 417.148438 Z M 533.605469 406.917969 C 533.234375 405.519531 532.820312 404.128906 532.320312 402.757812 C 531.835938 401.378906 531.289062 400.011719 530.527344 398.65625 L 528.667969 398.972656 C 528.414062 400.539062 528.449219 402.074219 528.605469 403.585938 C 528.75 405.105469 529.054688 406.589844 529.457031 408.046875 C 529.871094 409.5 530.375 410.9375 531.03125 412.308594 C 531.671875 413.6875 532.417969 415.027344 533.414062 416.246094 L 535.101562 415.621094 C 535.0625 414.066406 534.839844 412.605469 534.570312 411.164062 C 534.316406 409.726562 533.976562 408.320312 533.605469 406.917969 Z M 584.757812 398.03125 C 584.15625 396.671875 583.484375 395.34375 582.699219 394.066406 C 581.929688 392.777344 581.078125 391.535156 580.003906 390.386719 L 578.277344 391.160156 C 578.417969 392.726562 578.78125 394.1875 579.230469 395.617188 C 579.667969 397.050781 580.214844 398.4375 580.832031 399.792969 C 581.457031 401.140625 582.132812 402.46875 582.921875 403.742188 C 583.703125 405.023438 584.554688 406.273438 585.625 407.421875 L 587.273438 406.683594 C 587.121094 405.121094 586.757812 403.65625 586.320312 402.222656 C 585.894531 400.785156 585.351562 399.394531 584.757812 398.03125 Z M 562.171875 351.710938 C 561.910156 350.851562 561.609375 350.015625 561.222656 349.183594 C 560.859375 348.34375 560.441406 347.507812 559.804688 346.65625 L 557.933594 346.890625 C 557.546875 347.9375 557.464844 348.988281 557.511719 350.015625 C 557.554688 351.046875 557.761719 352.058594 558.078125 353.027344 C 558.40625 353.996094 558.835938 354.925781 559.414062 355.777344 C 559.972656 356.640625 560.648438 357.433594 561.554688 358.074219 L 563.148438 357.234375 C 563.164062 356.175781 563.019531 355.238281 562.839844 354.335938 C 562.671875 353.425781 562.433594 352.5625 562.171875 351.710938 Z M 523.90625 355.175781 C 523.503906 353.90625 523.023438 352.65625 522.429688 351.441406 C 521.851562 350.226562 521.179688 349.035156 520.277344 347.925781 L 518.480469 348.511719 C 518.402344 349.9375 518.566406 351.292969 518.8125 352.617188 C 519.042969 353.949219 519.394531 355.238281 519.816406 356.511719 C 520.246094 357.777344 520.730469 359.019531 521.335938 360.230469 C 521.929688 361.445312 522.597656 362.636719 523.488281 363.75 L 525.203125 363.1875 C 525.269531 361.761719 525.109375 360.410156 524.871094 359.082031 C 524.648438 357.75 524.3125 356.453125 523.90625 355.175781 Z M 480.628906 363.582031 C 480.65625 362.527344 480.617188 361.503906 480.566406 360.484375 C 480.515625 359.457031 480.441406 358.445312 480.300781 357.40625 C 480.179688 356.367188 480.023438 355.3125 479.683594 354.179688 L 477.820312 353.871094 C 477.125 354.914062 476.738281 356.050781 476.5 357.21875 C 476.253906 358.375 476.191406 359.566406 476.273438 360.742188 C 476.355469 361.917969 476.570312 363.082031 476.960938 364.199219 C 477.335938 365.320312 477.859375 366.398438 478.648438 367.359375 L 480.386719 366.871094 C 480.582031 365.707031 480.617188 364.636719 480.628906 363.582031 Z M 435.105469 363.53125 C 434.6875 362.101562 434.125 360.714844 433.265625 359.4375 L 431.433594 359.90625 C 431.28125 361.378906 431.296875 362.769531 431.347656 364.148438 C 431.382812 365.527344 431.476562 366.875 431.589844 368.230469 C 431.703125 369.582031 431.824219 370.9375 432.011719 372.304688 C 432.179688 373.671875 432.367188 375.054688 432.734375 376.492188 L 434.527344 376.667969 C 435.171875 375.28125 435.523438 373.816406 435.726562 372.351562 C 435.945312 370.875 435.972656 369.386719 435.878906 367.90625 C 435.769531 366.429688 435.53125 364.953125 435.105469 363.53125 Z M 393.808594 358.371094 L 391.914062 358.285156 C 391.335938 359.652344 391.003906 361.03125 390.769531 362.417969 C 390.511719 363.800781 390.382812 365.183594 390.328125 366.578125 C 390.277344 367.96875 390.289062 369.363281 390.425781 370.765625 C 390.546875 372.164062 390.746094 373.566406 391.191406 374.984375 L 392.988281 375.066406 C 393.5625 373.695312 393.890625 372.316406 394.136719 370.933594 C 394.40625 369.554688 394.546875 368.164062 394.625 366.773438 C 394.699219 365.386719 394.691406 363.992188 394.570312 362.589844 C 394.457031 361.1875 394.257812 359.789062 393.808594 358.371094 Z M 547.625 319.601562 L 549.308594 318.949219 C 549.363281 317.683594 549.195312 316.5 548.949219 315.351562 C 548.71875 314.199219 548.371094 313.085938 547.960938 311.996094 C 547.550781 310.910156 547.074219 309.847656 546.476562 308.832031 C 545.898438 307.8125 545.226562 306.820312 544.328125 305.925781 L 542.570312 306.601562 C 542.5 307.875 542.675781 309.050781 542.929688 310.199219 C 543.167969 311.351562 543.527344 312.460938 543.953125 313.542969 C 544.378906 314.621094 544.871094 315.679688 545.476562 316.691406 C 546.066406 317.707031 546.738281 318.699219 547.625 319.601562 Z M 515.167969 321.472656 C 514.949219 319.980469 514.609375 318.523438 514.210938 317.089844 C 513.808594 315.648438 513.332031 314.238281 512.734375 312.855469 C 512.152344 311.46875 511.484375 310.109375 510.578125 308.820312 L 508.757812 309.339844 C 508.675781 310.914062 508.835938 312.421875 509.082031 313.90625 C 509.304688 315.390625 509.660156 316.84375 510.078125 318.277344 C 510.503906 319.707031 510.992188 321.117188 511.597656 322.496094 C 512.1875 323.878906 512.859375 325.242188 513.757812 326.535156 L 515.488281 326.039062 C 515.5625 324.464844 515.40625 322.957031 515.167969 321.472656 Z M 476.085938 321.941406 C 475.902344 320.59375 475.671875 319.28125 475.441406 317.96875 C 475.207031 316.652344 474.960938 315.347656 474.65625 314.027344 C 474.371094 312.703125 474.0625 311.375 473.574219 309.996094 L 471.679688 309.957031 C 471.136719 311.386719 470.917969 312.867188 470.867188 314.34375 C 470.800781 315.824219 470.933594 317.304688 471.214844 318.753906 C 471.496094 320.199219 471.910156 321.621094 472.511719 322.972656 C 473.097656 324.328125 473.828125 325.628906 474.824219 326.773438 L 476.5 326.109375 C 476.460938 324.648438 476.277344 323.285156 476.085938 321.941406 Z M 442.492188 310.816406 L 440.601562 310.808594 C 440.082031 312.578125 439.8125 314.355469 439.628906 316.125 C 439.429688 317.902344 439.363281 319.671875 439.363281 321.449219 C 439.375 323.226562 439.441406 324.996094 439.640625 326.773438 C 439.820312 328.546875 440.082031 330.316406 440.582031 332.09375 L 442.378906 332.101562 C 442.894531 330.328125 443.164062 328.558594 443.355469 326.78125 C 443.5625 325.011719 443.648438 323.238281 443.664062 321.460938 C 443.679688 319.691406 443.617188 317.914062 443.433594 316.144531 C 443.265625 314.367188 443.003906 312.589844 442.492188 310.816406 Z M 401.582031 314.082031 C 401.640625 312.691406 401.605469 311.292969 401.324219 309.847656 L 399.457031 309.53125 C 398.722656 310.808594 398.230469 312.125 397.832031 313.453125 C 397.417969 314.78125 397.121094 316.132812 396.90625 317.492188 C 396.6875 318.855469 396.539062 320.226562 396.507812 321.621094 C 396.464844 323.011719 396.5 324.414062 396.773438 325.859375 L 398.550781 326.15625 C 399.273438 324.878906 399.765625 323.5625 400.175781 322.234375 C 400.601562 320.90625 400.90625 319.5625 401.144531 318.207031 C 401.378906 316.84375 401.542969 315.472656 401.582031 314.082031 Z M 200.410156 453.410156 C 199.664062 454.855469 199.179688 456.351562 198.816406 457.871094 C 198.429688 459.378906 198.195312 460.917969 198.054688 462.464844 C 197.921875 464.011719 197.875 465.5625 197.976562 467.121094 C 198.058594 468.679688 198.25 470.242188 198.699219 471.796875 L 200.503906 471.859375 C 201.058594 470.351562 201.402344 468.855469 201.6875 467.359375 C 201.984375 465.863281 202.179688 464.371094 202.335938 462.875 C 202.488281 461.371094 202.589844 459.863281 202.589844 458.339844 C 202.601562 456.824219 202.550781 455.289062 202.277344 453.707031 Z M 205.515625 406.542969 C 204.796875 407.90625 204.34375 409.3125 204.003906 410.734375 C 203.644531 412.15625 203.425781 413.601562 203.300781 415.054688 C 203.179688 416.503906 203.140625 417.96875 203.246094 419.429688 C 203.335938 420.890625 203.519531 422.359375 203.960938 423.828125 L 205.769531 423.902344 C 206.335938 422.496094 206.675781 421.089844 206.957031 419.683594 C 207.246094 418.269531 207.4375 416.863281 207.585938 415.445312 C 207.722656 414.035156 207.800781 412.617188 207.78125 411.175781 C 207.773438 409.742188 207.691406 408.296875 207.386719 406.8125 Z M 212.371094 358.882812 L 210.511719 358.554688 C 209.804688 359.621094 209.367188 360.753906 209.058594 361.90625 C 208.726562 363.0625 208.558594 364.242188 208.492188 365.429688 C 208.4375 366.617188 208.46875 367.8125 208.664062 369 C 208.84375 370.183594 209.140625 371.363281 209.703125 372.5 L 211.507812 372.40625 C 211.949219 371.25 212.191406 370.132812 212.382812 369.015625 C 212.589844 367.90625 212.707031 366.804688 212.785156 365.695312 C 212.863281 364.589844 212.898438 363.480469 212.835938 362.347656 C 212.792969 361.222656 212.683594 360.078125 212.371094 358.882812 Z M 262.765625 452.738281 C 262.625 451.15625 262.453125 449.574219 262.085938 447.929688 L 260.203125 447.757812 C 259.535156 449.347656 259.179688 450.996094 258.964844 452.652344 C 258.734375 454.3125 258.691406 455.988281 258.78125 457.65625 C 258.871094 459.328125 259.089844 460.992188 259.484375 462.617188 C 259.863281 464.246094 260.382812 465.855469 261.191406 467.371094 L 262.960938 467.03125 C 263.152344 465.367188 263.175781 463.765625 263.175781 462.179688 C 263.1875 460.59375 263.136719 459.023438 263.074219 457.457031 C 263.007812 455.882812 262.921875 454.316406 262.765625 452.738281 Z M 260.9375 412.296875 C 261.011719 410.890625 260.964844 409.5 260.859375 408.113281 C 260.742188 406.726562 260.558594 405.34375 260.242188 403.976562 C 259.945312 402.605469 259.558594 401.242188 258.921875 399.902344 L 257.035156 400.074219 C 256.648438 401.5 256.503906 402.914062 256.453125 404.3125 C 256.386719 405.714844 256.441406 407.109375 256.578125 408.492188 C 256.710938 409.878906 256.90625 411.253906 257.234375 412.628906 C 257.542969 413.996094 257.929688 415.355469 258.554688 416.703125 L 260.355469 416.539062 C 260.730469 415.109375 260.875 413.699219 260.9375 412.296875 Z M 257.757812 362.875 C 257.730469 361.664062 257.625 360.476562 257.484375 359.296875 C 257.339844 358.109375 257.15625 356.9375 256.878906 355.753906 C 256.621094 354.574219 256.300781 353.390625 255.773438 352.179688 L 253.886719 352.203125 C 253.386719 353.464844 253.167969 354.742188 253.085938 356.023438 C 252.984375 357.300781 253.046875 358.585938 253.21875 359.84375 C 253.398438 361.109375 253.671875 362.359375 254.109375 363.570312 C 254.523438 364.78125 255.0625 365.96875 255.859375 367.054688 L 257.609375 366.613281 C 257.800781 365.3125 257.800781 364.085938 257.757812 362.875 Z M 314.445312 447.859375 C 314.265625 446.78125 314.039062 445.71875 313.71875 444.652344 C 313.421875 443.582031 313.066406 442.519531 312.488281 441.433594 L 310.597656 441.539062 C 310.148438 442.714844 309.980469 443.90625 309.941406 445.097656 C 309.890625 446.277344 310 447.453125 310.210938 448.613281 C 310.4375 449.773438 310.753906 450.910156 311.226562 452.003906 C 311.6875 453.097656 312.257812 454.15625 313.082031 455.109375 L 314.800781 454.570312 C 314.953125 453.359375 314.921875 452.234375 314.839844 451.125 C 314.773438 450.007812 314.621094 448.933594 314.445312 447.859375 Z M 308.023438 400.726562 C 307.824219 399.460938 307.578125 398.199219 307.234375 396.953125 C 306.910156 395.691406 306.523438 394.4375 305.910156 393.175781 L 304.027344 393.316406 C 303.613281 394.675781 303.472656 396.042969 303.457031 397.398438 C 303.429688 398.753906 303.550781 400.105469 303.78125 401.433594 C 304.015625 402.761719 304.347656 404.074219 304.824219 405.351562 C 305.289062 406.621094 305.863281 407.871094 306.683594 409.027344 L 308.429688 408.566406 C 308.585938 407.183594 308.546875 405.867188 308.460938 404.570312 C 308.382812 403.265625 308.222656 401.992188 308.023438 400.726562 Z M 296.316406 351.632812 C 296.027344 350.484375 295.726562 349.339844 295.363281 348.183594 C 295.007812 347.027344 294.621094 345.867188 294.050781 344.660156 L 292.160156 344.757812 C 291.707031 346.074219 291.574219 347.417969 291.601562 348.75 C 291.605469 350.089844 291.808594 351.414062 292.148438 352.699219 C 292.492188 353.988281 292.964844 355.246094 293.613281 356.414062 C 294.246094 357.59375 295.015625 358.707031 296.039062 359.644531 L 297.65625 358.839844 C 297.566406 357.519531 297.339844 356.316406 297.101562 355.128906 C 296.875 353.9375 296.59375 352.785156 296.316406 351.632812 Z M 458.238281 383.925781 C 458.027344 382.511719 457.757812 381.097656 457.273438 379.648438 L 455.386719 379.605469 C 454.835938 381.054688 454.566406 382.542969 454.433594 384.027344 C 454.28125 385.515625 454.296875 387.007812 454.421875 388.484375 C 454.542969 389.96875 454.773438 391.4375 455.160156 392.882812 C 455.53125 394.328125 456.019531 395.753906 456.769531 397.109375 L 458.546875 396.792969 C 458.792969 395.292969 458.84375 393.847656 458.847656 392.414062 C 458.867188 390.984375 458.804688 389.566406 458.703125 388.15625 C 458.609375 386.742188 458.46875 385.335938 458.238281 383.925781 Z M 455.953125 346.105469 C 456.101562 344.917969 456.128906 343.730469 456.089844 342.554688 C 456.046875 341.371094 455.929688 340.195312 455.6875 339.023438 C 455.464844 337.855469 455.144531 336.683594 454.578125 335.527344 L 452.6875 335.605469 C 452.230469 336.8125 452.011719 338 451.886719 339.1875 C 451.746094 340.378906 451.734375 341.5625 451.796875 342.738281 C 451.859375 343.917969 451.988281 345.097656 452.242188 346.261719 C 452.476562 347.441406 452.796875 348.605469 453.351562 349.765625 L 455.148438 349.6875 C 455.605469 348.480469 455.816406 347.292969 455.953125 346.105469 Z M 454.617188 304.558594 C 454.980469 303.410156 455.148438 302.308594 455.261719 301.222656 C 455.390625 300.136719 455.429688 299.058594 455.429688 297.992188 C 455.429688 296.921875 455.390625 295.851562 455.25 294.769531 C 455.132812 293.683594 454.953125 292.589844 454.566406 291.445312 L 452.6875 291.234375 C 452.050781 292.304688 451.683594 293.429688 451.457031 294.574219 C 451.203125 295.710938 451.113281 296.871094 451.128906 298.023438 C 451.152344 299.179688 451.277344 300.339844 451.550781 301.46875 C 451.8125 302.605469 452.191406 303.722656 452.828125 304.78125 Z M 139.023438 440.625 C 138.179688 441.796875 137.585938 443.035156 137.082031 444.289062 C 136.5625 445.542969 136.15625 446.828125 135.828125 448.132812 C 135.507812 449.4375 135.242188 450.761719 135.097656 452.109375 C 134.941406 453.460938 134.863281 454.832031 135.015625 456.261719 L 136.761719 456.710938 C 137.585938 455.535156 138.179688 454.300781 138.695312 453.046875 C 139.230469 451.792969 139.644531 450.507812 139.992188 449.214844 C 140.339844 447.914062 140.613281 446.589844 140.765625 445.242188 C 140.933594 443.898438 141.011719 442.53125 140.847656 441.09375 Z M 69.675781 440.90625 C 68.789062 442.074219 68.011719 443.308594 67.292969 444.582031 C 66.585938 445.851562 65.929688 447.152344 65.382812 448.519531 C 64.820312 449.875 64.328125 451.269531 64.046875 452.789062 L 65.609375 453.679688 C 66.769531 452.664062 67.722656 451.535156 68.609375 450.355469 C 69.507812 449.191406 70.296875 447.964844 71.03125 446.710938 C 71.761719 445.449219 72.421875 444.148438 72.980469 442.792969 C 73.554688 441.4375 74.042969 440.042969 74.316406 438.523438 L 72.675781 437.589844 C 71.507812 438.597656 70.550781 439.726562 69.675781 440.90625 Z M 153.25 401.121094 C 152.707031 402.25 152.308594 403.441406 152.015625 404.65625 C 151.722656 405.871094 151.527344 407.105469 151.488281 408.363281 C 151.433594 409.621094 151.488281 410.890625 151.820312 412.175781 L 153.601562 412.425781 C 154.269531 411.316406 154.730469 410.195312 155.136719 409.074219 C 155.558594 407.960938 155.890625 406.828125 156.1875 405.699219 C 156.476562 404.558594 156.730469 403.410156 156.886719 402.230469 C 157.066406 401.054688 157.183594 399.847656 157.105469 398.546875 L 155.328125 397.910156 C 154.425781 398.890625 153.78125 399.984375 153.25 401.121094 Z M 95.527344 393.613281 C 94.703125 394.660156 93.996094 395.765625 93.347656 396.914062 C 92.707031 398.054688 92.121094 399.238281 91.636719 400.476562 C 91.148438 401.707031 90.722656 402.980469 90.511719 404.375 L 92.074219 405.273438 C 93.167969 404.378906 94.046875 403.371094 94.867188 402.324219 C 95.695312 401.28125 96.414062 400.179688 97.082031 399.046875 C 97.742188 397.910156 98.335938 396.738281 98.824219 395.507812 C 99.328125 394.277344 99.75 393 99.957031 391.605469 L 98.320312 390.664062 C 97.214844 391.550781 96.328125 392.558594 95.527344 393.613281 Z M 166.785156 354.523438 C 165.953125 355.738281 165.363281 357.019531 164.859375 358.320312 C 164.34375 359.613281 163.945312 360.941406 163.621094 362.289062 C 163.300781 363.636719 163.042969 365 162.902344 366.386719 C 162.75 367.773438 162.671875 369.183594 162.835938 370.648438 L 164.582031 371.082031 C 165.40625 369.855469 165.996094 368.578125 166.511719 367.28125 C 167.039062 365.984375 167.449219 364.664062 167.796875 363.324219 C 168.136719 361.980469 168.402344 360.625 168.550781 359.234375 C 168.714844 357.851562 168.789062 356.445312 168.621094 354.976562 Z M 121.066406 351.402344 C 120.378906 352.402344 119.792969 353.457031 119.285156 354.542969 C 118.773438 355.632812 118.320312 356.746094 117.980469 357.910156 C 117.625 359.078125 117.34375 360.277344 117.277344 361.574219 L 118.902344 362.359375 C 119.878906 361.492188 120.640625 360.527344 121.332031 359.523438 C 122.03125 358.535156 122.625 357.480469 123.15625 356.40625 C 123.683594 355.328125 124.148438 354.214844 124.496094 353.046875 C 124.863281 351.894531 125.140625 350.695312 125.199219 349.390625 L 123.496094 348.570312 C 122.507812 349.429688 121.746094 350.394531 121.066406 351.402344 Z M 412.382812 331.972656 C 411.671875 333.179688 411.207031 334.429688 410.835938 335.695312 C 410.445312 336.953125 410.179688 338.234375 409.984375 339.523438 C 409.800781 340.816406 409.671875 342.117188 409.671875 343.441406 C 409.65625 344.757812 409.714844 346.085938 410.011719 347.453125 L 411.796875 347.730469 C 412.496094 346.519531 412.960938 345.273438 413.347656 344.011719 C 413.746094 342.75 414.019531 341.472656 414.234375 340.183594 C 414.449219 338.894531 414.582031 337.597656 414.59375 336.28125 C 414.621094 334.960938 414.558594 333.636719 414.25 332.261719 Z M 408.246094 377.304688 L 406.359375 377.253906 C 405.796875 378.917969 405.476562 380.589844 405.261719 382.265625 C 405.019531 383.941406 404.90625 385.621094 404.863281 387.304688 C 404.828125 388.984375 404.855469 390.664062 405.007812 392.351562 C 405.148438 394.042969 405.367188 395.730469 405.820312 397.429688 L 407.625 397.476562 C 408.175781 395.808594 408.496094 394.140625 408.730469 392.464844 C 408.976562 390.789062 409.101562 389.109375 409.160156 387.425781 C 409.222656 385.746094 409.199219 384.058594 409.058594 382.378906 C 408.929688 380.6875 408.714844 379 408.246094 377.304688 Z M 629.753906 417.046875 C 628.714844 415.632812 627.640625 414.269531 626.558594 412.914062 C 625.46875 411.558594 624.371094 410.214844 623.21875 408.898438 C 622.074219 407.570312 620.894531 406.257812 619.546875 405.015625 L 617.925781 405.988281 C 618.417969 407.804688 619.199219 409.484375 620.101562 411.082031 C 620.996094 412.683594 622.050781 414.195312 623.210938 415.613281 C 624.378906 417.03125 625.632812 418.371094 627.023438 419.574219 C 628.402344 420.785156 629.875 421.894531 631.542969 422.769531 L 632.78125 421.457031 C 631.839844 419.878906 630.800781 418.453125 629.753906 417.046875 Z M 573.824219 423.816406 C 573.488281 422.625 573.042969 421.46875 572.429688 420.382812 C 571.835938 419.289062 571.117188 418.257812 570.148438 417.375 L 568.425781 418.15625 C 568.445312 419.429688 568.628906 420.578125 568.863281 421.710938 C 569.082031 422.839844 569.375 423.933594 569.699219 425.015625 C 570.023438 426.097656 570.378906 427.171875 570.808594 428.242188 C 571.226562 429.320312 571.683594 430.386719 572.339844 431.46875 L 574.128906 431.234375 C 574.464844 429.96875 574.519531 428.714844 574.449219 427.46875 C 574.386719 426.226562 574.15625 425.003906 573.824219 423.816406 Z M 518.867188 432.539062 C 518.648438 431.261719 518.351562 430.003906 517.9375 428.765625 C 517.535156 427.527344 517.046875 426.304688 516.3125 425.121094 L 514.453125 425.453125 C 514.171875 426.8125 514.136719 428.136719 514.195312 429.4375 C 514.234375 430.746094 514.402344 432.03125 514.636719 433.296875 C 514.878906 434.566406 515.1875 435.828125 515.613281 437.0625 C 516.019531 438.300781 516.515625 439.527344 517.238281 440.707031 L 519.015625 440.390625 C 519.285156 439.027344 519.316406 437.710938 519.265625 436.40625 C 519.238281 435.09375 519.082031 433.8125 518.867188 432.539062 Z M 464.703125 428.425781 C 464.476562 426.992188 464.191406 425.554688 463.691406 424.097656 L 461.804688 424.074219 C 461.269531 425.554688 461.023438 427.0625 460.902344 428.566406 C 460.765625 430.074219 460.789062 431.582031 460.929688 433.082031 C 461.0625 434.578125 461.304688 436.070312 461.695312 437.53125 C 462.078125 438.996094 462.570312 440.433594 463.332031 441.808594 L 465.105469 441.492188 C 465.347656 439.96875 465.390625 438.5 465.386719 437.042969 C 465.398438 435.59375 465.316406 434.152344 465.210938 432.71875 C 465.101562 431.289062 464.949219 429.863281 464.703125 428.425781 Z M 401.800781 431.144531 C 401.222656 432.511719 400.824219 433.945312 400.566406 435.402344 C 400.316406 436.859375 400.1875 438.339844 400.25 439.816406 C 400.292969 441.296875 400.484375 442.78125 400.972656 444.226562 L 402.777344 444.25 C 403.292969 442.867188 403.632812 441.515625 403.949219 440.175781 C 404.277344 438.835938 404.542969 437.507812 404.800781 436.175781 C 405.050781 434.847656 405.289062 433.515625 405.46875 432.152344 C 405.65625 430.796875 405.824219 429.417969 405.824219 427.941406 L 404.054688 427.277344 C 403.066406 428.449219 402.355469 429.773438 401.800781 431.144531 Z M 358.597656 428.753906 C 357.949219 430.511719 357.488281 432.332031 357.152344 434.175781 C 356.84375 436.023438 356.640625 437.890625 356.640625 439.769531 C 356.636719 441.640625 356.78125 443.519531 357.230469 445.375 L 359.035156 445.425781 C 359.589844 443.644531 359.976562 441.898438 360.34375 440.148438 C 360.730469 438.410156 361.039062 436.675781 361.378906 434.945312 C 361.6875 433.207031 362.019531 431.476562 362.28125 429.714844 C 362.5625 427.957031 362.820312 426.1875 362.921875 424.328125 L 361.132812 423.703125 C 360.039062 425.277344 359.242188 426.988281 358.597656 428.753906 Z M 571.800781 340.855469 L 573.289062 339.835938 C 572.882812 338.351562 572.355469 336.996094 571.835938 335.65625 C 571.320312 334.308594 570.769531 333.007812 570.226562 331.703125 C 569.675781 330.398438 569.128906 329.097656 568.523438 327.800781 C 567.933594 326.496094 567.324219 325.1875 566.542969 323.863281 L 564.6875 324.222656 C 564.46875 325.8125 564.59375 327.394531 564.890625 328.929688 C 565.164062 330.46875 565.648438 331.964844 566.269531 333.394531 C 566.898438 334.824219 567.652344 336.191406 568.578125 337.449219 C 569.488281 338.714844 570.53125 339.894531 571.800781 340.855469 Z M 589.269531 366.886719 C 588.691406 365.882812 588.097656 364.894531 587.4375 363.914062 C 586.792969 362.925781 586.113281 361.945312 585.238281 360.980469 L 583.449219 361.585938 C 583.367188 362.949219 583.601562 364.253906 583.984375 365.503906 C 584.347656 366.757812 584.898438 367.945312 585.558594 369.0625 C 586.230469 370.175781 587.003906 371.222656 587.925781 372.152344 C 588.832031 373.082031 589.847656 373.925781 591.058594 374.539062 L 592.410156 373.347656 C 592 372.113281 591.472656 371.035156 590.941406 369.972656 C 590.414062 368.910156 589.847656 367.894531 589.269531 366.886719 Z M 551.410156 372.550781 C 550.847656 371.207031 550.179688 369.902344 549.378906 368.667969 C 548.589844 367.4375 547.6875 366.257812 546.550781 365.238281 L 544.882812 366.140625 C 545.109375 367.625 545.507812 368.988281 545.953125 370.320312 C 546.386719 371.660156 546.898438 372.953125 547.453125 374.226562 C 548 375.503906 548.582031 376.765625 549.257812 378.007812 C 549.90625 379.253906 550.609375 380.484375 551.515625 381.683594 L 553.238281 381.144531 C 553.285156 379.621094 553.074219 378.15625 552.742188 376.726562 C 552.429688 375.292969 551.964844 373.902344 551.410156 372.550781 Z M 507.925781 381.128906 C 507.605469 379.9375 507.214844 378.765625 506.703125 377.628906 C 506.207031 376.484375 505.621094 375.363281 504.796875 374.3125 L 502.976562 374.816406 C 502.808594 376.136719 502.875 377.398438 503.039062 378.636719 C 503.179688 379.878906 503.449219 381.085938 503.785156 382.273438 C 504.125 383.460938 504.53125 384.632812 505.046875 385.761719 C 505.554688 386.90625 506.144531 388.027344 506.957031 389.078125 L 508.695312 388.601562 C 508.851562 387.277344 508.785156 386.015625 508.632812 384.777344 C 508.5 383.53125 508.246094 382.324219 507.925781 381.128906 Z M 366.828125 375.234375 C 366.144531 376.726562 365.628906 378.277344 365.234375 379.859375 C 364.84375 381.441406 364.5625 383.050781 364.449219 384.6875 C 364.328125 386.3125 364.332031 387.960938 364.628906 389.617188 L 366.417969 389.851562 C 367.121094 388.363281 367.628906 386.871094 368.105469 385.386719 C 368.59375 383.902344 369.003906 382.417969 369.402344 380.921875 C 369.792969 379.433594 370.15625 377.9375 370.449219 376.40625 C 370.757812 374.875 371.027344 373.332031 371.117188 371.683594 L 369.355469 370.992188 C 368.289062 372.300781 367.496094 373.746094 366.828125 375.234375 Z M 534.671875 331.433594 C 534.195312 330.347656 533.667969 329.28125 533.039062 328.25 C 532.429688 327.21875 531.746094 326.207031 530.847656 325.265625 L 529.070312 325.921875 C 529.015625 327.242188 529.214844 328.484375 529.519531 329.691406 C 529.8125 330.902344 530.230469 332.066406 530.742188 333.1875 C 531.257812 334.300781 531.84375 335.390625 532.5625 336.410156 C 533.265625 337.433594 534.058594 338.414062 535.070312 339.261719 L 536.667969 338.425781 C 536.558594 337.125 536.261719 335.941406 535.910156 334.789062 C 535.574219 333.636719 535.140625 332.527344 534.671875 331.433594 Z M 496.03125 334.230469 C 495.722656 333.050781 495.335938 331.898438 494.832031 330.777344 C 494.34375 329.652344 493.765625 328.554688 492.953125 327.515625 L 491.125 328.011719 C 490.953125 329.320312 491.015625 330.566406 491.164062 331.78125 C 491.300781 333 491.558594 334.191406 491.882812 335.359375 C 492.21875 336.53125 492.613281 337.679688 493.128906 338.800781 C 493.625 339.921875 494.203125 341.023438 495.011719 342.066406 L 496.75 341.589844 C 496.917969 340.285156 496.855469 339.042969 496.714844 337.820312 C 496.585938 336.597656 496.339844 335.40625 496.03125 334.230469 Z M 373.371094 326.671875 C 372.703125 328.015625 372.25 329.355469 371.84375 330.695312 C 371.425781 332.03125 371.09375 333.378906 370.796875 334.734375 C 370.503906 336.082031 370.234375 337.445312 370.050781 338.839844 C 369.84375 340.222656 369.679688 341.636719 369.699219 343.132812 L 371.402344 343.71875 C 372.347656 342.519531 373.042969 341.210938 373.628906 339.855469 C 374.214844 338.507812 374.660156 337.101562 374.988281 335.679688 C 375.324219 334.25 375.542969 332.792969 375.59375 331.320312 C 375.667969 329.851562 375.601562 328.367188 375.246094 326.878906 Z M 527.480469 293.597656 C 527.203125 292.59375 526.863281 291.613281 526.390625 290.667969 C 525.941406 289.722656 525.40625 288.796875 524.625 287.933594 L 522.808594 288.449219 C 522.597656 289.585938 522.617188 290.660156 522.730469 291.703125 C 522.832031 292.757812 523.050781 293.773438 523.34375 294.769531 C 523.632812 295.761719 523.992188 296.734375 524.46875 297.683594 C 524.929688 298.628906 525.464844 299.554688 526.234375 300.417969 L 527.972656 299.921875 C 528.175781 298.792969 528.152344 297.722656 528.046875 296.667969 C 527.957031 295.621094 527.746094 294.601562 527.480469 293.597656 Z M 495.078125 304.785156 L 496.730469 304.074219 C 496.761719 302.847656 496.621094 301.726562 496.457031 300.628906 C 496.304688 299.527344 496.085938 298.464844 495.851562 297.40625 C 495.617188 296.347656 495.351562 295.296875 495.015625 294.246094 C 494.691406 293.1875 494.328125 292.128906 493.765625 291.03125 L 491.871094 291.117188 C 491.414062 292.316406 491.253906 293.546875 491.25 294.769531 C 491.222656 295.992188 491.378906 297.199219 491.664062 298.378906 C 491.949219 299.558594 492.355469 300.707031 492.921875 301.789062 C 493.476562 302.875 494.148438 303.90625 495.078125 304.785156 Z M 421.9375 285.292969 L 420.046875 285.421875 C 419.617188 286.652344 419.386719 287.820312 419.210938 288.992188 C 419.015625 290.164062 418.902344 291.316406 418.824219 292.476562 C 418.753906 293.644531 418.703125 294.800781 418.730469 295.992188 C 418.742188 297.171875 418.796875 298.378906 419.03125 299.648438 L 420.792969 300.035156 C 421.554688 298.9375 422.042969 297.742188 422.40625 296.527344 C 422.789062 295.3125 423.007812 294.058594 423.113281 292.796875 C 423.21875 291.535156 423.203125 290.265625 423.011719 289.003906 C 422.84375 287.742188 422.535156 286.492188 421.9375 285.292969 Z M 390.207031 285.523438 C 390.367188 286.917969 390.289062 288.246094 390.121094 289.550781 C 389.96875 290.859375 389.691406 292.136719 389.34375 293.394531 C 388.992188 294.652344 388.582031 295.890625 388.050781 297.097656 C 387.535156 298.308594 386.933594 299.496094 386.109375 300.628906 L 384.367188 300.160156 C 384.214844 298.769531 384.300781 297.441406 384.457031 296.136719 C 384.601562 294.824219 384.867188 293.542969 385.191406 292.28125 C 385.515625 291.019531 385.921875 289.777344 386.441406 288.566406 C 386.953125 287.355469 387.546875 286.164062 388.382812 285.035156 L 390.207031 285.523438 " fill-opacity="1" fill-rule="nonzero"/><path fill="#fbd42a" d="M 348.386719 169.003906 C 340.074219 149.390625 319.972656 142.582031 302.269531 147.847656 C 289.296875 147.882812 276.460938 153.261719 272.558594 168.886719 C 270.300781 177.921875 270.6875 188.925781 272.183594 198.082031 C 273.734375 207.578125 278.445312 215.371094 286.1875 219.804688 C 301.316406 228.472656 322.53125 227.558594 336.382812 216.269531 C 349.726562 205.394531 355.621094 186.085938 348.386719 169.003906 Z M 280.121094 223.800781 C 278.203125 224.421875 276.578125 225.433594 275.085938 226.589844 C 273.605469 227.753906 272.285156 229.089844 271.125 230.554688 C 269.957031 232.019531 268.949219 233.605469 268.128906 235.300781 C 267.335938 237.011719 266.691406 238.808594 266.460938 240.804688 C 266.421875 241.171875 266.503906 241.558594 266.722656 241.894531 C 267.222656 242.65625 268.246094 242.871094 269.015625 242.371094 L 269.03125 242.355469 C 270.664062 241.296875 271.96875 240.097656 273.226562 238.875 C 274.464844 237.644531 275.609375 236.378906 276.695312 235.054688 C 277.789062 233.742188 278.804688 232.371094 279.757812 230.910156 C 280.699219 229.445312 281.59375 227.917969 282.277344 226.089844 L 282.289062 226.0625 C 282.425781 225.703125 282.441406 225.300781 282.3125 224.914062 C 282.015625 223.996094 281.035156 223.496094 280.121094 223.800781 Z M 359.675781 226.828125 C 358.636719 225.328125 357.488281 223.929688 356.25 222.628906 C 355.003906 221.316406 353.660156 220.113281 352.191406 219.03125 C 350.71875 217.949219 349.148438 216.964844 347.277344 216.269531 C 346.917969 216.132812 346.507812 216.117188 346.109375 216.253906 C 345.195312 216.558594 344.707031 217.546875 345.015625 218.464844 C 345.65625 220.351562 346.589844 221.949219 347.628906 223.457031 C 348.671875 224.957031 349.835938 226.335938 351.105469 227.613281 C 352.371094 228.898438 353.734375 230.085938 355.207031 231.167969 C 356.699219 232.230469 358.269531 233.21875 360.128906 233.921875 C 360.476562 234.058594 360.878906 234.070312 361.261719 233.941406 C 362.125 233.636719 362.585938 232.695312 362.289062 231.828125 C 361.632812 229.949219 360.695312 228.347656 359.675781 226.828125 Z M 255.539062 146.542969 C 256.925781 148.066406 258.460938 149.429688 260.113281 150.632812 C 261.769531 151.832031 263.542969 152.867188 265.429688 153.691406 C 267.324219 154.503906 269.308594 155.148438 271.476562 155.332031 C 271.890625 155.371094 272.324219 155.253906 272.675781 154.980469 C 273.425781 154.402344 273.5625 153.328125 272.980469 152.578125 L 272.96875 152.558594 C 271.667969 150.890625 270.242188 149.558594 268.792969 148.296875 C 267.335938 147.035156 265.835938 145.886719 264.285156 144.800781 C 262.738281 143.714844 261.144531 142.6875 259.480469 141.722656 C 257.800781 140.773438 256.074219 139.851562 254.082031 139.152344 L 254.058594 139.148438 C 253.679688 139.011719 253.246094 139.019531 252.847656 139.199219 C 252.03125 139.566406 251.667969 140.535156 252.035156 141.355469 C 252.929688 143.332031 254.171875 145.003906 255.539062 146.542969 Z M 349.617188 155.835938 C 351.542969 154.875 353.144531 153.640625 354.640625 152.324219 C 356.132812 151.003906 357.496094 149.566406 358.746094 148.039062 C 359.996094 146.519531 361.144531 144.90625 362.175781 143.199219 C 363.183594 141.476562 364.109375 139.679688 364.726562 137.628906 C 364.84375 137.242188 364.816406 136.804688 364.621094 136.414062 C 364.210938 135.613281 363.222656 135.292969 362.421875 135.703125 C 360.511719 136.675781 358.90625 137.910156 357.394531 139.214844 C 355.898438 140.53125 354.519531 141.949219 353.238281 143.449219 C 351.960938 144.953125 350.796875 146.546875 349.757812 148.25 C 348.726562 149.960938 347.800781 151.753906 347.203125 153.816406 C 347.085938 154.21875 347.113281 154.667969 347.308594 155.070312 C 347.742188 155.917969 348.773438 156.257812 349.617188 155.835938 Z M 268.316406 193.460938 C 268.382812 192.558594 267.699219 191.78125 266.796875 191.710938 L 266.789062 191.710938 C 263.691406 191.5 260.679688 191.691406 257.703125 192.015625 C 254.722656 192.34375 251.785156 192.84375 248.871094 193.488281 C 245.953125 194.125 243.074219 194.890625 240.21875 195.8125 C 237.371094 196.753906 234.546875 197.808594 231.804688 199.253906 L 231.792969 199.257812 C 231.328125 199.503906 231.003906 199.976562 230.964844 200.535156 C 230.910156 201.394531 231.566406 202.140625 232.421875 202.195312 C 235.515625 202.398438 238.527344 202.207031 241.507812 201.898438 C 244.492188 201.578125 247.445312 201.097656 250.367188 200.492188 C 253.292969 199.886719 256.183594 199.140625 259.039062 198.226562 C 261.898438 197.308594 264.722656 196.257812 267.457031 194.792969 C 267.929688 194.535156 268.277344 194.042969 268.316406 193.460938 Z M 384.601562 175.746094 C 382.164062 175.46875 379.828125 175.542969 377.519531 175.699219 C 375.214844 175.875 372.9375 176.171875 370.683594 176.566406 C 368.429688 176.960938 366.195312 177.464844 363.976562 178.109375 C 361.761719 178.765625 359.550781 179.519531 357.371094 180.664062 C 356.957031 180.882812 356.625 181.285156 356.507812 181.777344 C 356.300781 182.679688 356.867188 183.578125 357.769531 183.789062 C 360.195312 184.34375 362.585938 184.449219 364.957031 184.394531 C 367.320312 184.328125 369.664062 184.058594 371.980469 183.609375 C 374.289062 183.171875 376.570312 182.570312 378.808594 181.785156 C 381.039062 180.984375 383.230469 180.03125 385.304688 178.667969 C 385.683594 178.417969 385.964844 177.996094 386.015625 177.507812 C 386.109375 176.636719 385.484375 175.84375 384.601562 175.746094 Z M 320.917969 244.484375 C 320.476562 241.671875 319.941406 238.863281 319.039062 236.035156 C 318.878906 235.53125 318.46875 235.101562 317.917969 234.949219 C 317.042969 234.703125 316.136719 235.210938 315.890625 236.085938 C 315.070312 238.976562 314.730469 241.882812 314.5625 244.792969 C 314.40625 247.699219 314.464844 250.601562 314.722656 253.492188 C 314.976562 256.378906 315.40625 259.253906 316.042969 262.097656 C 316.695312 264.933594 317.515625 267.746094 318.769531 270.46875 C 318.988281 270.929688 319.433594 271.292969 319.976562 271.367188 C 320.832031 271.484375 321.625 270.882812 321.742188 270.027344 C 322.15625 267.089844 322.222656 264.234375 322.230469 261.386719 C 322.207031 258.542969 322.078125 255.722656 321.867188 252.910156 C 321.65625 250.09375 321.351562 247.292969 320.917969 244.484375 Z M 303.609375 122.226562 C 303.441406 119.597656 303.359375 116.964844 303.402344 114.308594 C 303.460938 111.648438 303.589844 108.976562 304.078125 106.238281 C 304.230469 105.378906 305.046875 104.808594 305.902344 104.960938 C 306.425781 105.050781 306.847656 105.402344 307.0625 105.84375 C 308.242188 108.398438 309 111.027344 309.59375 113.683594 C 310.171875 116.339844 310.554688 119.023438 310.761719 121.722656 C 310.96875 124.417969 310.996094 127.128906 310.804688 129.839844 C 310.609375 132.554688 310.238281 135.265625 309.410156 137.960938 C 309.140625 138.832031 308.210938 139.320312 307.339844 139.050781 C 306.8125 138.890625 306.421875 138.476562 306.257812 137.992188 C 305.367188 135.347656 304.863281 132.722656 304.453125 130.097656 C 304.046875 127.476562 303.777344 124.855469 303.609375 122.226562 " fill-opacity="1" fill-rule="nonzero"/><g clip-path="url(#fb098ca61e)"><path fill="#fde9aa" d="M 593.996094 227.355469 C 598.769531 227.355469 602.636719 220.789062 602.636719 216.015625 C 602.636719 211.242188 598.769531 207.371094 593.996094 207.371094 C 589.21875 207.371094 580.820312 212.324219 580.820312 217.097656 C 580.820312 221.871094 589.21875 227.355469 593.996094 227.355469 Z M 570.175781 505.425781 C 564.242188 505.425781 559.429688 510.238281 559.429688 516.171875 C 559.429688 522.101562 564.996094 528.816406 570.929688 528.816406 C 576.863281 528.816406 583.09375 522.101562 583.09375 516.171875 C 583.09375 510.238281 576.113281 505.425781 570.175781 505.425781 Z M 202.78125 553.132812 C 196.84375 553.132812 192.035156 557.945312 192.035156 563.875 C 192.035156 569.808594 196.84375 577.621094 202.78125 577.621094 C 208.710938 577.621094 217.695312 571.308594 217.695312 565.382812 C 217.695312 559.449219 208.710938 553.132812 202.78125 553.132812 Z M 26.519531 330.453125 C 32.453125 330.453125 41.441406 324.136719 41.441406 318.210938 C 41.441406 312.277344 32.453125 305.96875 26.519531 305.96875 C 20.582031 305.96875 15.773438 310.777344 15.773438 316.710938 C 15.773438 322.636719 20.582031 330.453125 26.519531 330.453125 Z M 671.558594 372.035156 C 665.625 372.035156 660.8125 376.84375 660.8125 382.777344 C 660.8125 388.710938 665.625 396.519531 671.558594 396.519531 C 677.496094 396.519531 686.480469 390.210938 686.480469 384.277344 C 686.480469 378.34375 677.496094 372.035156 671.558594 372.035156 Z M 140.703125 134.855469 C 134.773438 134.855469 129.957031 139.667969 129.957031 145.597656 C 129.957031 151.527344 134.773438 159.34375 140.703125 159.34375 C 146.640625 159.34375 155.625 153.03125 155.625 147.101562 C 155.625 141.167969 146.640625 134.855469 140.703125 134.855469 Z M 451.191406 43.753906 C 445.253906 43.753906 440.445312 48.566406 440.445312 54.496094 C 440.445312 60.429688 445.253906 68.246094 451.191406 68.246094 C 457.128906 68.246094 466.113281 61.9375 466.113281 56.003906 C 466.113281 50.070312 457.128906 43.753906 451.191406 43.753906 Z M 123.941406 365.597656 C 116.875 362.265625 108.960938 361.558594 101.839844 364.203125 C 100.488281 352.113281 90.089844 343.019531 76.957031 344.132812 C 61.066406 345.480469 49.640625 358.164062 48.058594 373.488281 C 37.125 372.023438 25.238281 370.796875 15.710938 377.566406 C 10.769531 381.074219 4.414062 390.039062 12.335938 394.160156 C 15.855469 395.992188 38.570312 393.546875 45.75 393.121094 C 59.210938 392.316406 72.683594 391.800781 86.167969 391.578125 C 99.652344 391.347656 113.140625 391.40625 126.617188 391.753906 C 132.738281 391.910156 144.0625 393.566406 142.675781 383.910156 C 141.523438 375.863281 130.691406 368.773438 123.941406 365.597656 Z M 634.261719 330.855469 C 634.574219 332.953125 633.398438 335.316406 630.9375 335.21875 C 607.828125 334.308594 584.722656 334.953125 561.632812 335.964844 C 550.304688 336.457031 538.988281 337.03125 527.65625 337.519531 C 517.519531 337.949219 499.160156 338.296875 497.28125 336.800781 C 493.8125 334.03125 499.160156 302.863281 540.769531 309.597656 C 543.101562 296.589844 554.695312 283.480469 567.6875 282.027344 C 581.035156 280.542969 591.933594 289.664062 594.667969 302.003906 C 613.683594 297.269531 631.382812 311.671875 634.261719 330.855469 " fill-opacity="1" fill-rule="nonzero"/></g></svg>